<svg xmlns="http://www.w3.org/2000/svg" viewBox="0 0 496.87 65.59"><defs><style>.cls-1{fill:#a6adb5;}</style></defs><title>bar-code</title><g id="Capa_2" data-name="Capa 2"><g id="Capa_1-2" data-name="Capa 1"><rect class="cls-1" width="3.73" height="65.2"/><rect class="cls-1" x="5.59" width="3.73" height="65.2"/><rect class="cls-1" x="70.5" width="3.73" height="65.2"/><rect class="cls-1" x="82.02" width="3.73" height="65.2"/><rect class="cls-1" x="112.02" width="3.73" height="65.2"/><rect class="cls-1" x="117.78" width="3.73" height="65.2"/><rect class="cls-1" x="124.05" width="3.73" height="65.2"/><rect class="cls-1" x="158.62" width="3.73" height="65.2"/><rect class="cls-1" x="188.49" width="3.73" height="65.2"/><rect class="cls-1" x="200.56" width="3.73" height="65.2"/><rect class="cls-1" x="206.15" width="3.73" height="65.2"/><rect class="cls-1" x="212" width="3.73" height="65.2"/><rect class="cls-1" x="253.18" width="3.73" height="65.2"/><rect class="cls-1" x="259.03" width="3.73" height="65.2"/><rect class="cls-1" x="276.82" width="3.73" height="65.2"/><rect class="cls-1" x="300.46" width="3.73" height="65.2"/><rect class="cls-1" x="306.05" width="3.73" height="65.2"/><rect class="cls-1" x="324.1" width="3.73" height="65.2"/><rect class="cls-1" x="335.79" width="3.73" height="65.2"/><rect class="cls-1" x="359.82" width="3.73" height="65.2"/><rect class="cls-1" x="383.33" width="3.73" height="65.2"/><rect class="cls-1" x="401.12" width="3.73" height="65.2"/><rect class="cls-1" x="412.44" width="3.73" height="65.2"/><rect class="cls-1" x="441.92" width="3.73" height="65.2"/><rect class="cls-1" x="470.39" width="9.07" height="65.2"/><rect class="cls-1" x="487.81" width="9.07" height="65.2"/><rect class="cls-1" x="452.47" width="3.73" height="65.2"/><rect class="cls-1" x="458.45" width="3.73" height="65.2"/><rect class="cls-1" x="481.7" width="3.73" height="65.2"/><rect class="cls-1" x="464.48" y="0.38" width="3.73" height="65.2"/><rect class="cls-1" x="353.72" width="3.73" height="65.2"/><rect class="cls-1" x="229.79" width="3.73" height="65.2"/><rect class="cls-1" x="47.11" width="3.73" height="65.2"/><rect class="cls-1" x="35.76" width="8.64" height="65.2"/><rect class="cls-1" x="59.57" width="8.64" height="65.2"/><rect class="cls-1" x="88.71" width="8.64" height="65.2"/><rect class="cls-1" x="100.58" width="8.64" height="65.2"/><rect class="cls-1" x="136.17" width="8.64" height="65.2"/><rect class="cls-1" x="147.69" width="8.64" height="65.2"/><rect class="cls-1" x="165.82" width="8.64" height="65.2"/><rect class="cls-1" x="177.26" width="8.64" height="65.2"/><rect class="cls-1" x="218.69" width="8.64" height="65.2"/><rect class="cls-1" x="236.36" width="8.64" height="65.2"/><rect class="cls-1" x="264.96" width="8.64" height="65.2"/><rect class="cls-1" x="283.39" width="8.64" height="65.2"/><rect class="cls-1" x="313.26" width="8.64" height="65.2"/><rect class="cls-1" x="342.49" width="8.64" height="65.2"/><rect class="cls-1" x="365.75" width="8.64" height="65.2"/><rect class="cls-1" x="389.01" width="8.64" height="65.2"/><rect class="cls-1" x="418.75" width="8.64" height="65.2"/><rect class="cls-1" x="430.7" width="8.64" height="65.2"/><rect class="cls-1" x="28.3" width="3.73" height="65.2"/><rect class="cls-1" x="12.03" width="8.47" height="65.2"/></g></g></svg>