<svg xmlns="http://www.w3.org/2000/svg" viewBox="0 0 16.39 16.39"><defs><style>.cls-1{fill:#cacad5;}</style></defs><title>brujula</title><g id="Capa_2" data-name="Capa 2"><g id="Capa_1-2" data-name="Capa 1"><path class="cls-1" d="M8.2,0a8.2,8.2,0,1,0,8.19,8.2A8.2,8.2,0,0,0,8.2,0Zm0,15.22a7,7,0,1,1,7-7A7,7,0,0,1,8.2,15.22Z"/><path class="cls-1" d="M12.18,4a.59.59,0,0,0-.52,0h0l-5,2.48a.65.65,0,0,0-.26.26L4,11.66a.59.59,0,0,0,.26.79.59.59,0,0,0,.52,0L9.7,10A.55.55,0,0,0,10,9.7l2.49-5A.58.58,0,0,0,12.18,4Zm-6.4,6.66L7.12,7.94,8.45,9.28Zm3.5-2.16L7.94,7.12l2.67-1.34Z"/></g></g></svg>