<svg xmlns="http://www.w3.org/2000/svg" viewBox="0 0 44.81 45.23"><defs><style>.cls-1{fill:#5b5b5f;}</style></defs><title>calendar-detail</title><g id="Capa_2" data-name="Capa 2"><g id="Capa_1-2" data-name="Capa 1"><path class="cls-1" d="M40.14,45.23H4.68A4.68,4.68,0,0,1,0,40.56V7.13A4.69,4.69,0,0,1,4.68,2.45H8.09V4.32H4.68A2.81,2.81,0,0,0,1.87,7.13V40.56a2.81,2.81,0,0,0,2.81,2.8H40.14a2.81,2.81,0,0,0,2.8-2.8V7.13a2.81,2.81,0,0,0-2.8-2.81H36.73V2.45h3.41a4.68,4.68,0,0,1,4.67,4.68V40.56A4.68,4.68,0,0,1,40.14,45.23Z"/><rect class="cls-1" x="13.35" y="2.45" width="18.12" height="1.87"/><rect class="cls-1" x="0.94" y="12.39" width="42.94" height="1.87"/><rect class="cls-1" x="6.03" y="22.48" width="32.76" height="1.87"/><rect class="cls-1" x="6.03" y="32.57" width="32.76" height="1.87"/><rect class="cls-1" x="21.47" y="16.31" width="1.87" height="24.31"/><rect class="cls-1" x="30.53" y="16.31" width="1.87" height="24.31"/><rect class="cls-1" x="12.41" y="16.31" width="1.87" height="24.31"/><rect class="cls-1" x="9.73" width="1.87" height="6.78"/><rect class="cls-1" x="33.15" width="1.87" height="6.78"/></g></g></svg>