<svg xmlns="http://www.w3.org/2000/svg" viewBox="0 0 54.74 82.11"><defs><style>.cls-1{fill:#a6adb5;}</style></defs><title>captura</title><g id="Capa_2" data-name="Capa 2"><g id="Capa_1-2" data-name="Capa 1"><path class="cls-1" d="M44.47,0H10.26A10.27,10.27,0,0,0,0,10.26V71.84A10.28,10.28,0,0,0,10.26,82.11H44.47A10.29,10.29,0,0,0,54.74,71.84V10.26A10.28,10.28,0,0,0,44.47,0Zm-35,5.44H45.25A3.58,3.58,0,0,1,48.83,9v60.8H5.91V9A3.57,3.57,0,0,1,9.48,5.44Z"/><path class="cls-1" d="M15.05,48.21V43.49h-3v4.72A6,6,0,0,0,18,54.16h4.72v-3H18A3,3,0,0,1,15.05,48.21Z"/><path class="cls-1" d="M15.05,33.49V28.78a3,3,0,0,1,2.94-3h4.72v-3H18a6,6,0,0,0-5.94,6v4.71Z"/><path class="cls-1" d="M40.38,28.78v4.71h3V28.78a6,6,0,0,0-6-6H32.71v3h4.72A3,3,0,0,1,40.38,28.78Z"/><path class="cls-1" d="M40.38,43.49v4.72a3,3,0,0,1-3,2.95H32.71v3h4.72a6,6,0,0,0,6-5.95V43.49Z"/></g></g></svg>