<svg xmlns="http://www.w3.org/2000/svg" xmlns:xlink="http://www.w3.org/1999/xlink" viewBox="0 0 124.67 104.28"><defs><style>.cls-1{fill:none;}.cls-15,.cls-2{fill:#fff;}.cls-2{stroke:#ededed;stroke-miterlimit:10;}.cls-3{fill:#f7f7f8;}.cls-10,.cls-4{fill:#a6adb5;}.cls-5{clip-path:url(#clip-path);}.cls-6{fill:url(#linear-gradient);}.cls-7{fill:url(#linear-gradient-2);}.cls-8{fill:#e64d4e;}.cls-9{fill:#f2dad4;}.cls-10{font-size:6.89px;font-family:Nunito-Bold, Nunito Bold;font-weight:700;}.cls-11{letter-spacing:-0.01em;}.cls-12{letter-spacing:-0.01em;}.cls-13{letter-spacing:0em;}.cls-14{fill:#15ea84;}</style><clipPath id="clip-path" transform="translate(11.62)"><rect class="cls-1" x="6.47" y="15.23" width="34.38" height="40.35"/></clipPath><linearGradient id="linear-gradient" x1="127.33" y1="-82.78" x2="132.83" y2="-21.64" gradientTransform="translate(-101.7 129.08) rotate(-1.85)" gradientUnits="userSpaceOnUse"><stop offset="0" stop-color="#4e9cff"/><stop offset="0.98" stop-color="#176ad4"/></linearGradient><linearGradient id="linear-gradient-2" x1="127.56" y1="-87.51" x2="129.1" y2="-70.46" gradientTransform="translate(-101.7 129.08) rotate(-1.85)" gradientUnits="userSpaceOnUse"><stop offset="0" stop-color="#f2bfad"/><stop offset="1" stop-color="#f2dad4"/></linearGradient></defs><title>cedula_1</title><g id="Capa_2" data-name="Capa 2"><g id="Capa_1-2" data-name="Capa 1"><rect class="cls-2" x="12.12" y="0.5" width="97.78" height="61.65" rx="0.92"/><rect class="cls-3" x="18.08" y="15.23" width="34.38" height="40.35"/><rect class="cls-4" x="55.68" y="44.71" width="4.67" height="9.33"/><rect class="cls-4" x="63.46" y="44.71" width="1.56" height="9.33"/><rect class="cls-4" x="68.12" y="44.71" width="1.56" height="9.33"/><rect class="cls-4" x="79.01" y="44.71" width="1.56" height="9.33"/><rect class="cls-4" x="60.35" y="44.71" width="1.56" height="9.33"/><rect class="cls-4" x="71.24" y="44.71" width="1.56" height="9.33"/><rect class="cls-4" x="99.23" y="44.71" width="3.11" height="9.33"/><rect class="cls-4" x="72.79" y="45.55" height="8.5"/><rect class="cls-4" x="66.57" y="44.71" width="1.56" height="9.33"/><rect class="cls-4" x="72.79" y="44.71" width="3.11" height="9.33"/><rect class="cls-4" x="75.9" y="44.71" width="3.11" height="9.33"/><rect class="cls-4" x="80.57" y="44.71" width="1.56" height="9.33"/><rect class="cls-4" x="89.9" y="44.71" width="1.56" height="9.33"/><rect class="cls-4" x="97.67" y="44.71" width="1.56" height="9.33"/><rect class="cls-4" x="85.23" y="44.71" width="1.56" height="9.33"/><rect class="cls-4" x="93.01" y="44.71" width="3.11" height="9.33"/><rect class="cls-4" x="88.34" y="44.71" width="1.56" height="9.33"/><path class="cls-4" d="M88.62,18H75.2a1,1,0,0,1,0-2H88.62a1,1,0,1,1,0,2Z" transform="translate(11.62)"/><path class="cls-4" d="M65.5,18H46.3a1,1,0,1,1,0-2H65.5a1,1,0,0,1,0,2Z" transform="translate(11.62)"/><path class="cls-4" d="M88.62,25.1H63.7a1,1,0,0,1,0-2H88.62a1,1,0,1,1,0,2Z" transform="translate(11.62)"/><path class="cls-4" d="M56.85,25.1H46.3a1,1,0,1,1,0-2H56.85a1,1,0,1,1,0,2Z" transform="translate(11.62)"/><path class="cls-4" d="M88.62,32.18H74.36a1,1,0,1,1,0-2H88.62a1,1,0,1,1,0,2Z" transform="translate(11.62)"/><path class="cls-4" d="M68.24,32.18H46.3a1,1,0,1,1,0-2H68.24a1,1,0,1,1,0,2Z" transform="translate(11.62)"/><path class="cls-4" d="M88.62,39.27h-1.4a1,1,0,0,1,0-2h1.4a1,1,0,1,1,0,2Z" transform="translate(11.62)"/><path class="cls-4" d="M81.74,39.27H65.92a1,1,0,0,1,0-2H81.74a1,1,0,0,1,0,2Z" transform="translate(11.62)"/><path class="cls-4" d="M60.65,39.27H46.3a1,1,0,1,1,0-2H60.65a1,1,0,0,1,0,2Z" transform="translate(11.62)"/><g class="cls-5"><path class="cls-6" d="M18.73,44.8c-4.21,1.61-15.16,4.7-16.42,5.78S-3.58,64.76-4.76,65s-7,3.89-6.86,6.83,3.3,10.84,6.28,10.49S.8,78.39,1.09,79.89c1.69,8.85-2.75,20.49-2,24.28.3,1.45,13.9-11,26-11.26s20.59,9.44,20.94,7.94c1.59-6.74-3-15.46,3.24-28,0,0,4.88,5,8.39,5.33s6.89-5.5,6.81-7.86-1.89-8.15-4.81-8.06S55.72,64.05,55,63.45s-5.43-12.23-8.24-13.68S35.08,46.59,34,45.92s-6.11-2.21-8.45-1.81S18.73,44.8,18.73,44.8Z" transform="translate(11.62)"/><path class="cls-7" d="M18.53,38.61c.13,1.77.85,5.86.2,6.19s-2.59,1.42-3,2.72.84,7.07,9.36,6.82c8.8-.27,8-6.65,7.42-7.56s-1.76-.88-1.88-2.36.22-6.17.21-6.45S18.53,38.61,18.53,38.61Z" transform="translate(11.62)"/><path class="cls-8" d="M15.6,34c-.49-2.62-1.43-8.15-1.24-9.36a9,9,0,0,1,8.44-6.54c5.31-.18,8.27,2.53,9.53,5.6s1.08,9.92,1.08,9.92-5.93,3.83-8.72,3.8S15.6,34,15.6,34Z" transform="translate(11.62)"/><path class="cls-9" d="M14.81,32.7c-.83.8,1.56,5.13,2,5.15s.76-.16,1.08.43,3,6.72,7.27,6.59c4.6-.15,6.67-6.87,6.94-7.61s.77-.11,1.07-.5a10.41,10.41,0,0,0,1.09-3.94c0-1.29-.27-1.63-.85-1.51s-.51,1.08-.8,1.07,0-3-.34-4.74-2-3.77-8-3.29-7.82.78-7.86,3.95c0,0,.16,5-.24,4.9S15.48,32.07,14.81,32.7Z" transform="translate(11.62)"/><path class="cls-9" d="M-10,61c.18,1.54-.78,4.93-.92,6.27a15,15,0,0,0,.61,6c.76,2.38,2,3.68,3.69,2.31s2.35-2.67,2.32-3.79S-5.93,62.88-5.85,62s3.7-4,4.07-4a6.6,6.6,0,0,1,1.56.63c.51.22,1-.58,1-.95a3.1,3.1,0,0,1,0-.73,4.6,4.6,0,0,0,.32-1.4,3.73,3.73,0,0,1,.08-1.47c.12-.37.84-.74.83-1a2.84,2.84,0,0,0-.91-2.36A3.35,3.35,0,0,0-2.24,49.6c-1.59.26-3.74.15-4.3,1.45S-10.4,57.39-10,61Z" transform="translate(11.62)"/><path class="cls-9" d="M47.56,53.39c.53.38,2,.62,2.4,1.09s1.6,2,2.68,2.32A4,4,0,0,1,55,58.4c.12.48.06,8.61.3,9.34S58.43,72.5,61,72.17s.95-8.47.31-9.84a25.64,25.64,0,0,1-1.89-5.94c-.22-1.69-1.43-3.75-1.73-4.58s0-4.15-.61-4.68a27.28,27.28,0,0,0-3.48-2.65c-.45-.09-.94-1.08-1.42-.9-.78.28-.13,1-.64,1s-2.47-.33-2.82.57a1.69,1.69,0,0,0,0,1.42,1,1,0,0,0-1.2.89,2.29,2.29,0,0,0,.33,1.68s-1,0-1,.87.76,1.41.67,1.51A1.43,1.43,0,0,0,47.56,53.39Z" transform="translate(11.62)"/></g><text class="cls-10" transform="translate(24.57 10.53)">CEDULA DE CIU<tspan class="cls-11" x="44.88" y="0">D</tspan><tspan x="49.37" y="0">A</tspan><tspan class="cls-12" x="53.58" y="0">D</tspan><tspan class="cls-13" x="58.07" y="0">ANÍA</tspan></text><circle class="cls-14" cx="108.89" cy="32.99" r="15.78"/><path class="cls-15" d="M94.8,39.59a1.41,1.41,0,0,1-1-.43L88.62,34A1.46,1.46,0,1,1,90.68,32l4.12,4.12,9.26-9.27a1.47,1.47,0,0,1,2.06,0,1.45,1.45,0,0,1,0,2.06L95.83,39.16A1.45,1.45,0,0,1,94.8,39.59Z" transform="translate(11.62)"/></g></g></svg>