<svg xmlns="http://www.w3.org/2000/svg" viewBox="0 0 34.4 34.4"><defs><style>.cls-1{fill:#ffd05d;}.cls-2{fill:#303030;}.cls-3{fill:#695342;}.cls-4{fill:#f06669;}</style></defs><title>feliz</title><g id="Capa_2" data-name="Capa 2"><g id="Capa_1-2" data-name="Capa 1"><circle class="cls-1" cx="17.2" cy="17.2" r="17.2"/><path class="cls-2" d="M12.13,13c0,1.18-.57,2.14-1.27,2.14S9.6,14.21,9.6,13s.56-2.14,1.26-2.14S12.13,11.85,12.13,13Z"/><path class="cls-2" d="M24.81,13c0,1.18-.57,2.14-1.27,2.14s-1.27-1-1.27-2.14.57-2.14,1.27-2.14S24.81,11.85,24.81,13Z"/><path class="cls-3" d="M5.64,18.83a11.63,11.63,0,0,0,23.12,0Z"/><path class="cls-4" d="M9.22,26a11.61,11.61,0,0,0,15.69.25l-.1-.25C17,22.19,9.32,25.92,9.22,26Z"/></g></g></svg>