<svg xmlns="http://www.w3.org/2000/svg" viewBox="0 0 45 45"><defs><style>.cls-1{fill:#ffd05d;}.cls-2{fill:#5e4939;}.cls-3{fill:#303030;}</style></defs><title>felix-2</title><g id="Capa_2" data-name="Capa 2"><g id="Capa_1-2" data-name="Capa 1"><circle class="cls-1" cx="22.5" cy="22.5" r="22.5"/><path class="cls-2" d="M13.28,25.9a.74.74,0,0,0-1.21.81,11.28,11.28,0,0,0,20.86.21.74.74,0,0,0-1.2-.82C28.43,29.29,21.44,33.84,13.28,25.9Z"/><path class="cls-3" d="M15.87,18.47c0,1.55-.74,2.8-1.66,2.8s-1.66-1.25-1.66-2.8.75-2.79,1.66-2.79S15.87,16.93,15.87,18.47Z"/><path class="cls-3" d="M32.45,18.47c0,1.55-.75,2.8-1.66,2.8s-1.66-1.25-1.66-2.8.74-2.79,1.66-2.79S32.45,16.93,32.45,18.47Z"/></g></g></svg>