<svg xmlns="http://www.w3.org/2000/svg" viewBox="0 0 112.3 112.3"><defs><style>.cls-1{fill:#59595b;}.cls-2{fill:#c22645;}</style></defs><title>icono-2</title><g id="Capa_2" data-name="Capa 2"><g id="Capa_1-2" data-name="Capa 1"><path class="cls-1" d="M56.15,102.94a46.79,46.79,0,1,1,46.79-46.79A46.93,46.93,0,0,1,56.15,102.94Zm0-88.9A42.11,42.11,0,1,0,98.26,56.15,41.93,41.93,0,0,0,56.15,14Z"/><path class="cls-2" d="M56.15,23.4a2.21,2.21,0,0,1-2.34-2.34V2.34a2.34,2.34,0,0,1,4.68,0V21.06A2.21,2.21,0,0,1,56.15,23.4Z"/><path class="cls-2" d="M110,58.49H91.24a2.34,2.34,0,1,1,0-4.68H110a2.34,2.34,0,1,1,0,4.68Z"/><path class="cls-2" d="M56.15,112.3A2.21,2.21,0,0,1,53.81,110V91.24a2.34,2.34,0,0,1,4.68,0V110A2.21,2.21,0,0,1,56.15,112.3Z"/><path class="cls-2" d="M21.06,58.49H2.34a2.34,2.34,0,1,1,0-4.68H21.06a2.34,2.34,0,0,1,0,4.68Z"/><path class="cls-1" d="M56.15,70.19a14,14,0,1,1,14-14A13.79,13.79,0,0,1,56.15,70.19Zm0-23.4a9.36,9.36,0,1,0,9.36,9.36A9.38,9.38,0,0,0,56.15,46.79Z"/></g></g></svg>