<svg xmlns="http://www.w3.org/2000/svg" viewBox="0 0 50.9 50.9"><defs><style>.cls-1{fill:#fff;stroke:#ebebeb;stroke-miterlimit:10;}.cls-2{fill:#ba3837;}.cls-3{fill:#ddbf0b;}.cls-4{fill:#79b64d;}.cls-5{fill:#5f7fef;}</style></defs><title>icono-google</title><g id="Capa_2" data-name="Capa 2"><g id="Capa_1-2" data-name="Capa 1"><circle class="cls-1" cx="25.45" cy="25.45" r="24.95"/><path class="cls-2" d="M40.26,23.09H26V28.2h8.57a9.2,9.2,0,1,1-8.67-12.36A9.06,9.06,0,0,1,31.69,18h.24l3.77-3.83a14.45,14.45,0,0,0-9.84-3.86,14.89,14.89,0,0,0,0,29.77A14.51,14.51,0,0,0,34.78,37a15,15,0,0,0,4-4.9A14.58,14.58,0,0,0,40,29a15.24,15.24,0,0,0,.26-4Z"/><path class="cls-3" d="M40.26,23.09H26V28.2h8.57a9.19,9.19,0,0,1-17.34-6.07L12.54,19a15,15,0,0,0-1.34,6.17A14.78,14.78,0,0,0,25.86,40.05,14.51,14.51,0,0,0,34.78,37a15,15,0,0,0,4-4.9A14.58,14.58,0,0,0,40,29a15.24,15.24,0,0,0,.26-4Z"/><path class="cls-4" d="M40.26,25V23.09H26V28.2h8.57A9.13,9.13,0,0,1,17.13,28l-4.7,3.07A14.52,14.52,0,0,0,34.78,37a15,15,0,0,0,4-4.9A14.58,14.58,0,0,0,40,29,15.24,15.24,0,0,0,40.26,25Z"/><path class="cls-5" d="M40.26,25V23.09H26V28.2h8.57a9.35,9.35,0,0,1-3.8,4.86l3.71,4.14.34-.23a15,15,0,0,0,4-4.9A14.58,14.58,0,0,0,40,29,15.24,15.24,0,0,0,40.26,25Z"/></g></g></svg>