<svg xmlns="http://www.w3.org/2000/svg" viewBox="0 0 111.63 111.63"><defs><style>.cls-1{fill:#59595b;}.cls-2{fill:#c22645;}</style></defs><title>icono-1</title><g id="Capa_2" data-name="Capa 2"><g id="Capa_1-2" data-name="Capa 1"><path class="cls-1" d="M62.79,111.63H48.84c-3.26,0-7-2.79-7-8.37V93.49c0-4.65-2.32-8.84-6-12.09A32.14,32.14,0,0,1,23.26,55.35,33.09,33.09,0,0,1,55.35,23.26a32.68,32.68,0,0,1,23.26,9.3,33.15,33.15,0,0,1,9.77,23.26,31.27,31.27,0,0,1-12.1,25.11,17,17,0,0,0-6.51,13v10.7a7.15,7.15,0,0,1-7,7Zm-7-83.72c-14.89,0-27.45,12.56-27.91,27.44,0,8.84,3.72,17.21,10.7,22.33a20.27,20.27,0,0,1,7.9,15.81v9.77c0,.93,0,3.72,2.33,3.72H62.79a2.2,2.2,0,0,0,2.33-2.32V94c0-6,3.26-12.56,8.37-16.75A27.11,27.11,0,0,0,83.72,55.82a27.79,27.79,0,0,0-8.37-20,27.38,27.38,0,0,0-19.53-7.91Z"/><path class="cls-1" d="M67.44,97.68H44.19a2.33,2.33,0,1,1,0-4.65H67.44a2.33,2.33,0,1,1,0,4.65Z"/><path class="cls-2" d="M55.82,14a2.2,2.2,0,0,1-2.33-2.32V2.33a2.33,2.33,0,1,1,4.65,0v9.3A2.19,2.19,0,0,1,55.82,14Z"/><path class="cls-2" d="M87,27a2.79,2.79,0,0,1-1.86-.47,2.24,2.24,0,0,1,0-3.25l6.51-6.52A2.31,2.31,0,0,1,94.89,20l-6.51,6.51A4.64,4.64,0,0,1,87,27Z"/><path class="cls-2" d="M109.31,58.14H100a2.33,2.33,0,0,1,0-4.65h9.31a2.33,2.33,0,0,1,0,4.65Z"/><path class="cls-2" d="M93.49,95.82a2.79,2.79,0,0,1-1.86-.47l-6.51-6.51a2.3,2.3,0,1,1,3.26-3.25l6.51,6.51a2.24,2.24,0,0,1,0,3.25c0,.47-.47.47-1.4.47Z"/><path class="cls-2" d="M18.14,95.82a2.77,2.77,0,0,1-1.86-.47,2.24,2.24,0,0,1,0-3.25l6.51-6.51a2.3,2.3,0,1,1,3.26,3.25l-6.51,6.51A1.71,1.71,0,0,1,18.14,95.82Z"/><path class="cls-2" d="M11.63,58.14H2.33a2.33,2.33,0,1,1,0-4.65h9.3a2.33,2.33,0,0,1,0,4.65Z"/><path class="cls-2" d="M24.65,27a2.79,2.79,0,0,1-1.86-.47l-6.51-7a2.31,2.31,0,0,1,3.26-3.26l6.51,6.51a2.25,2.25,0,0,1,0,3.26c-.47.46-.93.93-1.4.93Z"/><path class="cls-1" d="M74.42,58.14a2.19,2.19,0,0,1-2.32-2.32A16.48,16.48,0,0,0,55.82,39.54a2.33,2.33,0,1,1,0-4.65A20.85,20.85,0,0,1,76.75,55.82,2.2,2.2,0,0,1,74.42,58.14Z"/></g></g></svg>