<svg xmlns="http://www.w3.org/2000/svg" viewBox="0 0 85.09 59.3"><defs><style>.cls-1{fill:#a6adb5;}.cls-2{fill:#fff;}</style></defs><title>icono-foto</title><g id="Capa_2" data-name="Capa 2"><g id="Capa_1-2" data-name="Capa 1"><rect class="cls-1" width="85.09" height="59.3" rx="7.31"/><circle class="cls-2" cx="22.15" cy="18.33" r="6.5"/><path class="cls-2" d="M80.23,37.05a1.13,1.13,0,0,0-.33-.79L59.23,15.59a2,2,0,0,0-2.83,0L27.65,44.34,16.06,32.75a2,2,0,0,0-2.83,0l-8,8a1.15,1.15,0,0,0-.34.82v3.74a.59.59,0,0,0,1,.42L14.65,37,26.23,48.58a2,2,0,0,0,2.83,0L57.81,19.83,79,41.05a.7.7,0,0,0,1.19-.49Z"/></g></g></svg>