<svg xmlns="http://www.w3.org/2000/svg" xmlns:xlink="http://www.w3.org/1999/xlink" viewBox="0 0 204.93 236.76"><defs><style>.cls-1{fill:#f2dad4;}.cls-2{fill:url(#linear-gradient);}.cls-3{fill:url(#linear-gradient-2);}.cls-4{fill:url(#linear-gradient-3);}.cls-5{fill:url(#linear-gradient-4);}.cls-6{fill:#192b59;}.cls-7{fill:#176ad4;}.cls-8{fill:#e64d4e;}.cls-9{fill:url(#linear-gradient-5);}.cls-10{fill:url(#linear-gradient-6);}.cls-11{fill:url(#linear-gradient-7);}.cls-12{fill:url(#linear-gradient-8);}.cls-13{fill:url(#linear-gradient-9);}.cls-14{fill:url(#linear-gradient-10);}.cls-15{fill:url(#linear-gradient-11);}.cls-16{fill:url(#linear-gradient-12);}.cls-17{fill:url(#linear-gradient-13);}.cls-18{fill:url(#linear-gradient-14);}.cls-19{fill:url(#linear-gradient-15);}</style><linearGradient id="linear-gradient" x1="-751.11" y1="468.89" x2="-747.71" y2="474.46" gradientTransform="translate(1021.46 195.14) rotate(44.8)" gradientUnits="userSpaceOnUse"><stop offset="0" stop-color="#f2bfad"/><stop offset="1" stop-color="#f2dad4"/></linearGradient><linearGradient id="linear-gradient-2" x1="755.71" y1="152.33" x2="745.54" y2="165.91" gradientTransform="matrix(-1, 0, 0, 1, 920.78, 0)" gradientUnits="userSpaceOnUse"><stop offset="0" stop-color="#4e9cff"/><stop offset="0.89" stop-color="#176ad4"/></linearGradient><linearGradient id="linear-gradient-3" x1="732.11" y1="171.92" x2="747.45" y2="165.64" gradientTransform="matrix(-1, 0, 0, 1, 920.78, 0)" gradientUnits="userSpaceOnUse"><stop offset="0" stop-color="#4e9cff"/><stop offset="1" stop-color="#176ad4"/></linearGradient><linearGradient id="linear-gradient-4" x1="762.63" y1="177.66" x2="802.32" y2="150.73" gradientTransform="matrix(-1, 0, 0, 1, 920.78, 0)" gradientUnits="userSpaceOnUse"><stop offset="0" stop-color="#1d0633"/><stop offset="0.44" stop-color="#1b1845"/><stop offset="0.83" stop-color="#192b59"/></linearGradient><linearGradient id="linear-gradient-5" x1="757.41" y1="69.45" x2="771.06" y2="69.45" gradientTransform="matrix(-1, 0, 0, 1, 920.78, 0)" xlink:href="#linear-gradient"/><linearGradient id="linear-gradient-6" x1="773.07" y1="109.67" x2="759.8" y2="51.45" xlink:href="#linear-gradient-3"/><linearGradient id="linear-gradient-7" x1="720.12" y1="11.38" x2="723.52" y2="16.95" gradientTransform="matrix(-1, 0, 0, 1, 920.78, 0)" xlink:href="#linear-gradient"/><linearGradient id="linear-gradient-8" x1="750.41" y1="-110.23" x2="753.32" y2="-102.84" gradientTransform="matrix(-0.97, 0.24, 0.24, 0.97, 838.18, -60.48)" gradientUnits="userSpaceOnUse"><stop offset="0" stop-color="#f2bfad"/><stop offset="0.99" stop-color="#f2dad4"/></linearGradient><linearGradient id="linear-gradient-9" x1="755.53" y1="-111.89" x2="756.05" y2="-106.73" gradientTransform="matrix(-0.97, 0.24, 0.24, 0.97, 838.18, -60.48)" gradientUnits="userSpaceOnUse"><stop offset="0" stop-color="#f2bfad"/><stop offset="0.91" stop-color="#f2dad4"/></linearGradient><linearGradient id="linear-gradient-10" x1="15.88" y1="5.11" x2="18.79" y2="12.5" gradientTransform="matrix(1, 0, 0, 1, 0, 0)" xlink:href="#linear-gradient-8"/><linearGradient id="linear-gradient-11" x1="21" y1="3.45" x2="21.52" y2="8.62" gradientTransform="matrix(1, 0, 0, 1, 0, 0)" xlink:href="#linear-gradient-9"/><linearGradient id="linear-gradient-12" x1="57" y1="231.8" x2="53.24" y2="215.3" gradientTransform="matrix(1, 0, 0, 1, 0, 0)" xlink:href="#linear-gradient-3"/><linearGradient id="linear-gradient-13" x1="10.93" y1="222.02" x2="7" y2="204.78" gradientTransform="matrix(1, 0, 0, 1, 0, 0)" xlink:href="#linear-gradient-3"/><linearGradient id="linear-gradient-14" x1="71.25" y1="117.05" x2="56.34" y2="51.62" gradientTransform="matrix(1, 0, 0, 1, 0, 0)" xlink:href="#linear-gradient-3"/><linearGradient id="linear-gradient-15" x1="356.74" y1="-55.01" x2="360.39" y2="-43.61" gradientTransform="matrix(0.97, -0.26, 0.26, 0.97, -276.26, 212.3)" xlink:href="#linear-gradient"/></defs><title>img-pretamo</title><g id="Capa_2" data-name="Capa 2"><g id="Capa_1-2" data-name="Capa 1"><path class="cls-1" d="M148.68,2.07c-1.08.9-2.15,4.3-3.27,6.64s-9.81,22.46-10,24.42-.86,2.76-.26,3.36a19.35,19.35,0,0,0,5.56,2c.42-.12,1.62-.95,2-3.22s7.14-22.26,7.39-23.74,1.62-3.74,3.16-3.78,4.35,1.76,5.86,1.15,1.43-1.9,2.37-2.09,2.63-.84,2.6-1.48c0-.93-1.28-.07-1.85-.64S162,3,161.09,2.16s-2.9-2.3-4.33-2.15-2-.07-2.61.5-.75,1.36-1.39,1.55S149.6,1.3,148.68,2.07Z"/><path class="cls-2" d="M154.07,1.49a2.71,2.71,0,0,1,1.84.24c.33.22,1.35-.2,1.68.07S158.75,3.07,159,3a.87.87,0,0,1,1.11.6c.17.66.22,1.26-.33,1.16s-1.07-1-1.65-1.27-1.14-.68-1.74-.51-1.13-.47-1.38-.55-.47.14-.74,0S153.65,1.7,154.07,1.49Z"/><path class="cls-3" d="M164.57,160.46c.64-1.85.78-4.79,2.77-5.81s6.79,1.51,9.59,3.79,4.68,4.9,6.86,7.21,3.21,7.71,1.1,8.84-9.13-.92-10.95-2.11-7.66-5.9-8-7.38S164.57,160.46,164.57,160.46Z"/><path class="cls-1" d="M164.57,160.46c1.71-.7,1.11-1.87,2.72-1.24s4.08,4.12,5.47,5.27c1.11.91,1.44,2.84,0,3.19s-5.83-.3-5.83-.3l-2.36-4.47Z"/><path class="cls-1" d="M173,165.89c2-1.78,2.21-1.44,3.32-1.25s5.24,2.74,5.86,4.62.87,4.71-.33,5.38-5.5,0-6-.32S173,165.89,173,165.89Z"/><path class="cls-4" d="M174.38,164.94c.66-.39,6.19,3.33,7.16,4.95a3.37,3.37,0,0,1-1.07,4.13c-.77.39-2.9.35-2.55.89a15.49,15.49,0,0,0,6.58,2.63c1.89,0,7.36,2.26,8.06,2.22a3,3,0,0,0,1.86-4.1c-1-2.6-5.12-7.56-8.44-10.54-3-2.73-7.77-5.94-9-5.44S172,162.81,172,164s-.54,1.86,0,1.86A5.87,5.87,0,0,0,174.38,164.94Z"/><path class="cls-5" d="M128.18,132.09c-.26,4.27.8,6.28-.26,11.48s-5.25,16.32-6.09,26.72-2.07,17.11,4.81,18.84,16.37-6.54,18.16-8.33S168.26,168.51,169,168s-.9-4.16-2.24-6.21-2.05-3.27-4.05-2.22-11.59,5.33-14.2,5.44-8.78-7.68-8.31-12.07,2.77-21-.08-20.82S128.18,132.09,128.18,132.09Z"/><path class="cls-6" d="M153.94,126.29c1.89,2.83,6,9.1,5.32,15.46s-17.16,29.33-15.46,28.64A39.21,39.21,0,0,1,154.09,168c5.71-.74,17.65-2.53,18.44-3s1.79.35,2.94,2,2.28,5.76.64,7.75-4.68.11-10.26,1.7-26.08,10.58-31.29,11.3-8.26-1-10.14-4.05-.22-9,2.6-15.36,9.2-20.21,8-22.53-6.88-10.94-6.88-12.31A14.43,14.43,0,0,1,129.2,128C130.07,125.92,153.94,126.29,153.94,126.29Z"/><path class="cls-7" d="M130.24,122.38c-1.76-.72-8-2.58-8.12-3.85s11.21-.54,12.39.35S130.24,122.38,130.24,122.38Z"/><path class="cls-1" d="M130.61,118.05c-.85,4.55-2.52,9.42-1.88,11.53s8.14,1.48,13.14.58,12.77-2.29,12.83-2.72a3,3,0,0,0-.56-2C153.6,124.64,130.61,118.05,130.61,118.05Z"/><path class="cls-8" d="M164.87,46.45c-.81-7-15-12.14-23.22-5.27-7,5.82,1.18,18.19-1.91,21.5C130.15,73,132,87.93,137.86,90.54,148,95,155.3,76.26,158.33,72.21S165.87,55,164.87,46.45Z"/><path class="cls-8" d="M175.39,59.91c-1.23,12.7-6.85,17.09-9.7,19.29S153,81.1,150.27,80.33s14.79-8,14.95-12.3-4.65-18.93-2.36-21.59C166.87,41.8,176.4,49.54,175.39,59.91Z"/><path class="cls-9" d="M151.07,62.07C150.9,64,150,74,149.73,75.41s11.29,1.64,12.89,1.26c.7-.16,1-4,.47-5.56C162.59,69.72,151.07,62.07,151.07,62.07Z"/><path class="cls-10" d="M191.24,53.39c.6,1.24-1.41,4.53-2.69,6.16s-12.83,21.51-15.47,24.74-8.15,13.13-11.49,16.59a21.35,21.35,0,0,0-5.81,11c-.41,3.16,1.41,12.78.47,13.72s-3.93,2.58-10.55.29-16.48-6.21-18.89-6.62-4.51-.36-4.69-.77,3.11-3.34,3.81-5.92,6-17.65,6.75-20.06,3.81-11.67,3.81-13.78.19-10.81-.38-17S133.78,37,133.78,35.19s2.31-7.38,2.62-7.69,1.07,1.55,4,1.11,4-.13,4.09.62-1.64,6.45-1.42,8.94-.18,9.43.62,11.52,4.37,16.37,4.62,19-.33,5,1.08,6.28c2.85,2.67,7.11,1.92,12.18-.67,1.94-1,4.19,1.34,7-1.6s6.27-9.3,7.46-11.28,6.9-10.85,8-11.26S191.24,53.39,191.24,53.39Z"/><path class="cls-1" d="M167.09,51.07c3.19,1.69,3.08,5,2.95,7.34s-2.08,10.1-5,11.81-4.66,2.34-6.54,2c-7.81-1.5-5.95-9.07-7.39-9.13a2.39,2.39,0,0,1-2.16-2.5c-.07-1.18.52-3.73,1.24-3.73a1.69,1.69,0,0,1,1.51,1.31c.07.59-.2,1.31.26,1.31s-.19-4,.72-5.05,4.14-.79,6-2S164.86,49.89,167.09,51.07Z"/><path class="cls-1" d="M204.92,20.45c.13,1.41-1.51,4.57-2.36,7s-8.87,22.86-10.09,24.39-1.34,2.57-2.19,2.57a19,19,0,0,1-5.34-2.51c-.22-.38-.48-1.82.85-3.69s10.63-20.82,11.48-22,1.5-3.79.43-4.91-4.33-1.82-5-3.32.32-2.34-.21-3.15-1.27-2.44-.8-2.88c.68-.63,1,.86,1.76.86s1.34-1,2.56-1,3.69.41,4.6,1.53,1.49,1.39,1.49,2.19-.43,1.49-.1,2.08S204.81,19.25,204.92,20.45Z"/><path class="cls-11" d="M201.51,16.24A2.76,2.76,0,0,0,200,15.11c-.39-.08-.82-1.09-1.25-1.13s-1.71.08-1.79-.15a.87.87,0,0,0-1.21-.36c-.58.36-1.05.74-.58,1.06s1.48,0,2.06.26,1.29.32,1.6.87,1.13.46,1.36.58.23.43.55.51S201.65,16.68,201.51,16.24Z"/><path class="cls-1" d="M87.49,12.36c1.21,2.16,1.39,3.79.77,5.28a13.67,13.67,0,0,0-1.43,5.52c0,2.21-.36,22.94-.84,23.58s-6.9.77-7.48.56S77,45.17,78,41s3.12-15.24,2.16-17.27-4.29-4.18-5.09-6.32-.44-4.45.05-4.67a12.68,12.68,0,0,0,2.46-1.45,1.13,1.13,0,0,1,1.31-.33,1.67,1.67,0,0,0,1.37.11C80.77,10.88,85.78,9.32,87.49,12.36Z"/><path class="cls-12" d="M86.55,14.05s-1.63,4-4,4a4.45,4.45,0,0,1-3.68-2c-.4-.43.67-.37,1,0S82,17.84,82.64,17.5a11.07,11.07,0,0,0,3-3.36C86.09,13.13,86.55,14.05,86.55,14.05Z"/><path class="cls-13" d="M78.88,12.64c0-.18-1.42,1.35-1.46,1.7s.07,1.15.43,1.06.22-1.05.42-1.2A2.55,2.55,0,0,0,78.88,12.64Z"/><path class="cls-1" d="M11.87,7c-.66,2.38-.45,4,.51,5.31a13.73,13.73,0,0,1,2.71,5c.51,2.15,5.82,22.2,6.44,22.7s6.89-.9,7.4-1.24,1-2.43-1-6.27S21.25,18.42,21.7,16.22s3.16-5.07,3.43-7.35S24.5,4.45,24,4.35a12.91,12.91,0,0,1-2.74-.83,1.12,1.12,0,0,0-1.35,0A1.66,1.66,0,0,1,18.57,4C18.05,3.92,12.81,3.6,11.87,7Z"/><path class="cls-14" d="M13.19,8.38s2.53,3.47,4.79,2.93a4.43,4.43,0,0,0,3.1-2.79c.29-.51-.74-.2-1,.2S18.52,11,17.8,10.8a11.3,11.3,0,0,1-3.73-2.55C13.41,7.38,13.19,8.38,13.19,8.38Z"/><path class="cls-15" d="M20.3,5.18a5.05,5.05,0,0,1,1.82,1.3c.12.33.21,1.13-.16,1.13s-.47-1-.69-1.06A2.59,2.59,0,0,1,20.3,5.18Z"/><path class="cls-16" d="M52.46,210.83a6.16,6.16,0,0,0-5.12.86c-1.63,1.07-.92,3.84-.36,5.41s3.29,5.54,3.38,6.55-.12,5.83,1.06,8.38,2.67,5,4.89,4.7,2.51-3.31,2.45-4.91-.2-4.86.42-6.45,2.19-2.61,2.19-3.62a4.53,4.53,0,0,0-.83-2.57C60.12,218.68,52.46,210.83,52.46,210.83Z"/><path class="cls-17" d="M17.56,201.13c-2-1.91-3.19-3.46-5.19-3.2s-3.64,3-4.92,5.73-3.73,7-5.46,10.2A20,20,0,0,0,.13,224.51c.4,2.49,1.68,4.26,4.79,3.86s4.83-6.65,6.52-8.34,6-4.83,7-5.77.62-2.75.58-3.5S17.56,201.13,17.56,201.13Z"/><path class="cls-1" d="M14.39,205a4.39,4.39,0,0,0-1.27,3.82c.21,1.72,1.77,4.46,3.25,4.54a3.81,3.81,0,0,0,3.16-2C19.66,210.83,14.39,205,14.39,205Z"/><path class="cls-6" d="M53.87,136.25c-1.68,3.74-1.8,8.51-1.8,19.53s-.86,31.81-.66,33.07-5.53-.51-12,2.08-22.38,9.13-23.9,9.79a3.18,3.18,0,0,0-2,3.36c0,1.6,2.69,7.84,5.67,7.84s15.69-5.29,19-6.24,19.9-4.16,22.22-4.87,5.2-4.11,6.54-11.53,4.69-25.13,6.21-25.18,5.49,14.88,5.92,17.71.75,3.69-1.8,5.3-10.6,9.83-16.37,15.18-9.43,7.73-9.54,9.05,1.36,5.16,3.47,7,4.17,2.31,5.39,1.87,8.08-9,12.08-13a169.8,169.8,0,0,1,18.35-15c3.57-2.26,6.66-3,4.9-9.58s-2.54-18.5-6.28-28-5-15.6-5-17.38.21-3.35-1.48-3.44S53.87,136.25,53.87,136.25Z"/><path class="cls-7" d="M83.51,133.74a27.69,27.69,0,0,0,3.3-1.28c.53-.32-.57-.88-1-1s-2.43-.9-2.9-.44S83.51,133.74,83.51,133.74Z"/><path class="cls-1" d="M57.22,136.67c3.34.42,15.58,1.06,19.6.87a10.57,10.57,0,0,0,7-3c.15-.3-.46-4.48-1.18-5.47s-6.68-3.47-10.86-.92S57.22,136.67,57.22,136.67Z"/><path class="cls-18" d="M20.65,39.09c-.81.82,3.37,11.36,4.12,13s5.87,11.74,7.37,16.29S42.77,88.86,45.25,94.42s7.17,22.52,7.17,27.59-4,16-1.85,16.08,23-4.51,25.88-6.6,8.77,1.51,10.36,1S84,123.81,83.89,116.8s-3.26-20.3-5.6-25.06,1-10.51,3.78-15.18,5.82-20,5.57-25.41.19-10.38-1.26-10.87-8.94-.62-9.33.91.79,11-.15,13.36S74,68.85,73.37,70.14s-6.63,3.32-11.24,1.49C56.72,69.48,50.61,68.5,48,71.25c-1,1-4.1-7.31-12.17-21.52C34.44,47.25,31.7,37.93,30.08,37S21.59,38.12,20.65,39.09Z"/><path class="cls-8" d="M51.5,68.55S47.89,61.38,47.68,57s2.18-8,7.15-9.32a9.39,9.39,0,0,1,9.78,3.34c1.45,2,1.28,4.81,1.28,9.44C65.89,65.68,51.5,68.55,51.5,68.55Z"/><path class="cls-19" d="M51.06,66.4A21.49,21.49,0,0,1,51.71,71a7.34,7.34,0,0,0-.15,2.3c1.89,3.7,8.32,7.38,9.28,7.38s4.38-2,4.29-2.5c-.15-.79-1.6-1.44-1.66-2a25.33,25.33,0,0,1,.45-4.08C64.09,71.5,53,65.75,51.06,66.4Z"/><path class="cls-1" d="M60.25,53.34c3-.47,4.76.65,5,1.72s1.17,7.61,1.46,9-.61,8.71-3.26,9.19S55.5,72.63,53.85,70a15,15,0,0,0-3.19-4c-.53-.43-2.39-3.05-2.1-4s.89-1.64,1.49-1.19a7.1,7.1,0,0,1,2,2.72c.17.56.13-7.76,2-8.61A40.13,40.13,0,0,1,60.25,53.34Z"/></g></g></svg>