<svg xmlns="http://www.w3.org/2000/svg" viewBox="0 0 293.5 61.08"><defs><style>.cls-1{fill:#c22645;}.cls-2,.cls-3{fill:#ffb100;}.cls-2{stroke:#ffb100;stroke-width:0.56px;}.cls-4{fill:#444242;}</style></defs><title>logo-movil-1</title><g id="Capa_2" data-name="Capa 2"><g id="Capa_1-2" data-name="Capa 1"><path class="cls-1" d="M27.48,45.18l.05,3.14-2.84,0-.05-3A9,9,0,0,1,18,42.81l2.48-2.57A6.42,6.42,0,0,0,25,41.85l-.08-5.08-.9-.1a6.65,6.65,0,0,1-3.9-1.62,5.21,5.21,0,0,1-1.49-3.87c0-3.23,2.1-5.65,5.74-6.1l0-2.53,2.83,0,0,2.49a8.22,8.22,0,0,1,5.57,2.22L30.29,29.7a5.53,5.53,0,0,0-3.48-1.29l.08,4.88,1.07.15A6.78,6.78,0,0,1,31.8,35a5.53,5.53,0,0,1,1.61,4.18C33.47,42.56,31,44.7,27.48,45.18ZM24.74,28.47A2.48,2.48,0,0,0,22.34,31,1.9,1.9,0,0,0,23,32.4a3.32,3.32,0,0,0,1.86.75ZM29,37.63a3.49,3.49,0,0,0-2-.7L27,41.76c1.68-.22,2.59-1.08,2.57-2.45A2.22,2.22,0,0,0,29,37.63Z"/><path class="cls-2" d="M31.14,5.91a1.47,1.47,0,0,1-1.62,1.24H22a1.47,1.47,0,0,1-1.62-1.24V1.52A1.46,1.46,0,0,1,22,.28h7.49a1.46,1.46,0,0,1,1.62,1.24Z"/><path class="cls-1" d="M25.8,61.08a25.8,25.8,0,0,1,0-51.6,3.78,3.78,0,0,1,0,7.55,18.26,18.26,0,1,0,0,36.51,3.77,3.77,0,0,1,0,7.54Z"/><path class="cls-3" d="M36.47,20a1.75,1.75,0,0,1-.95-.28,1.8,1.8,0,0,1-.58-2.49l2.2-3.52a1.81,1.81,0,0,1,3.07,1.93L38,19.18A1.8,1.8,0,0,1,36.47,20Z"/><path class="cls-3" d="M43.78,27.57A1.81,1.81,0,0,1,43,24.15l3.68-1.9a1.81,1.81,0,0,1,1.67,3.22l-3.69,1.9A1.75,1.75,0,0,1,43.78,27.57Z"/><path class="cls-3" d="M46.13,49.93a1.88,1.88,0,0,1-.91-.24l-3.58-2.1a1.81,1.81,0,1,1,1.83-3.12l3.58,2.09a1.81,1.81,0,0,1-.92,3.37Z"/><path class="cls-3" d="M37.2,58.24a1.8,1.8,0,0,1-1.58-.93l-2-3.63a1.81,1.81,0,1,1,3.17-1.75l2,3.63a1.81,1.81,0,0,1-.7,2.46A1.85,1.85,0,0,1,37.2,58.24Z"/><path class="cls-3" d="M49.81,37H45.66a1.81,1.81,0,1,1,0-3.62h4.15a1.81,1.81,0,0,1,0,3.62Z"/><path class="cls-4" d="M80.12,44.58A17.35,17.35,0,0,1,81,47a16.32,16.32,0,0,1,.52,2.48,19.66,19.66,0,0,1-3.9,1,25.51,25.51,0,0,1-3.72.25,15.47,15.47,0,0,1-6.21-1.15,12.36,12.36,0,0,1-4.48-3.2,13.72,13.72,0,0,1-2.73-4.9,20,20,0,0,1-.92-6.17,19.35,19.35,0,0,1,1-6.19,14.41,14.41,0,0,1,2.77-4.93A12.37,12.37,0,0,1,67.77,21a14.73,14.73,0,0,1,6-1.17,24.9,24.9,0,0,1,3.69.25,16.11,16.11,0,0,1,3.64,1,8.83,8.83,0,0,1-.5,2.44c-.27.79-.58,1.59-.91,2.4a18.12,18.12,0,0,0-2.59-.71A14.71,14.71,0,0,0,74.46,25a7.53,7.53,0,0,0-6.15,2.6q-2.15,2.61-2.14,7.73,0,10.17,8.62,10.17a15.46,15.46,0,0,0,2.71-.21A17.09,17.09,0,0,0,80.12,44.58Z"/><path class="cls-4" d="M86.08,28.71a11.66,11.66,0,0,1,1.19-.19,11.51,11.51,0,0,1,1.23-.06,8.29,8.29,0,0,1,1.23.08c.4.06.8.13,1.19.21a2.24,2.24,0,0,1,.22.6c.07.27.14.54.19.84s.11.58.15.87.07.54.1.73a10.69,10.69,0,0,1,2.25-2.31,5.33,5.33,0,0,1,3.34-1c.27,0,.59,0,1,0a4.28,4.28,0,0,1,.8.12q.08.42.12,1c0,.36,0,.74,0,1.13s0,1-.06,1.54a11.12,11.12,0,0,1-.23,1.58,6.21,6.21,0,0,0-1-.08h-.69a10.47,10.47,0,0,0-1.58.14,3.69,3.69,0,0,0-1.67.78,4.52,4.52,0,0,0-1.31,1.87A9.31,9.31,0,0,0,92,40V50.29c-.5.08-1,.14-1.5.17s-1,0-1.46,0-1,0-1.44,0-1-.09-1.52-.17Z"/><path class="cls-4" d="M106.92,41.29a4.52,4.52,0,0,0,1.75,3.63A7,7,0,0,0,112.83,46a16.14,16.14,0,0,0,2.9-.27,16.83,16.83,0,0,0,2.81-.77,9.37,9.37,0,0,1,.79,2,10,10,0,0,1,.38,2.5,20.38,20.38,0,0,1-7.33,1.25,14.33,14.33,0,0,1-5.15-.83,9.14,9.14,0,0,1-3.5-2.32,9.27,9.27,0,0,1-2-3.52,14.7,14.7,0,0,1-.65-4.46,14.3,14.3,0,0,1,.67-4.45,10.3,10.3,0,0,1,2-3.63A9.35,9.35,0,0,1,107,29.1a10.78,10.78,0,0,1,4.52-.89,9.58,9.58,0,0,1,4,.79,8.79,8.79,0,0,1,3,2.17,8.91,8.91,0,0,1,1.85,3.27A12.75,12.75,0,0,1,121,38.5q0,.8-.06,1.56c-.05.52-.09.93-.15,1.23Zm8.45-4.12a5.2,5.2,0,0,0-1.1-3.23,3.5,3.5,0,0,0-2.85-1.23,4.14,4.14,0,0,0-3.17,1.16,5.52,5.52,0,0,0-1.29,3.3Z"/><path class="cls-4" d="M137,45.83c-.32,0-.64,0-1,0a7.2,7.2,0,0,1-2.17-.31,4.39,4.39,0,0,1-1.73-1,4.76,4.76,0,0,1-1.14-1.89,8.8,8.8,0,0,1-.42-2.9,11,11,0,0,1,.31-2.65,6.64,6.64,0,0,1,1-2.21,5.19,5.19,0,0,1,1.69-1.5,5,5,0,0,1,2.4-.56,11.91,11.91,0,0,1,1.31.06,13.74,13.74,0,0,1,1.35.28V43.94h5.88V19.79c-.5-.08-1-.14-1.5-.17s-1,0-1.46,0-1,0-1.44,0-1,.09-1.48.17v8.83a8.77,8.77,0,0,0-1.56-.27q-.81-.06-1.56-.06a11.12,11.12,0,0,0-4.54.9,10.23,10.23,0,0,0-3.48,2.43,10.63,10.63,0,0,0-2.21,3.65,12.78,12.78,0,0,0-.77,4.48,13,13,0,0,0,.89,5.08,9.14,9.14,0,0,0,2.44,3.4,10,10,0,0,0,3.56,1.92,14.81,14.81,0,0,0,4.23.6l1.42,0Z"/><path class="cls-4" d="M152,25.25c.56,0,1,0,1.5,0s1,0,1.52,0a11.57,11.57,0,0,0,1.52-.17,13.55,13.55,0,0,0,.17-1.41c0-.48,0-.94,0-1.38s0-.94,0-1.4a13.85,13.85,0,0,0-.17-1.39,13.22,13.22,0,0,0-1.54-.19c-.56,0-1.07-.06-1.54-.06s-.94,0-1.48.06a13.42,13.42,0,0,0-1.52.19,16.15,16.15,0,0,0-.25,2.79,15.64,15.64,0,0,0,.25,2.79A11.51,11.51,0,0,0,152,25.25Z"/><path class="cls-4" d="M148.5,33.21h2.79V43.94h5.79V28.71H148.5a9.6,9.6,0,0,0-.25,2.21q0,.54.06,1.14C148.36,32.46,148.42,32.85,148.5,33.21Z"/><path class="cls-4" d="M168.1,43.94l.4-14.32,5.64,14.32h4.72l6.06-14,.52,14h5.72L190,20.29a17.57,17.57,0,0,0-3-.25,14.89,14.89,0,0,0-2.87.25L177,37.46l-6.87-17.17A20.24,20.24,0,0,0,167,20a21.18,21.18,0,0,0-3.21.25l-.92,23.65Z"/><path class="cls-4" d="M198.79,25.25c.56,0,1.06,0,1.5,0s1,0,1.52,0a11.73,11.73,0,0,0,1.53-.17,13.52,13.52,0,0,0,.16-1.41c0-.48,0-.94,0-1.38s0-.94,0-1.4a13.78,13.78,0,0,0-.16-1.39,13.69,13.69,0,0,0-1.55-.19c-.55,0-1.07-.06-1.54-.06s-.94,0-1.48.06a13.42,13.42,0,0,0-1.52.19,17.2,17.2,0,0,0-.25,2.79,16.63,16.63,0,0,0,.25,2.79A11.69,11.69,0,0,0,198.79,25.25Z"/><path class="cls-4" d="M195.34,33.21h2.79V43.94h5.79V28.71h-8.58a9.6,9.6,0,0,0-.25,2.21q0,.54.06,1.14A8.12,8.12,0,0,0,195.34,33.21Z"/><path class="cls-4" d="M215.67,43.94V39a8.93,8.93,0,0,1,.37-2.84,4.37,4.37,0,0,1,1-1.68,3.08,3.08,0,0,1,1.36-.82,5.76,5.76,0,0,1,1.46-.2,2.53,2.53,0,0,1,2.39,1.2,7.08,7.08,0,0,1,.69,3.46v5.86h5.92V36.5q0-4.29-1.86-6.29a7.12,7.12,0,0,0-5.52-2,6.7,6.7,0,0,0-2.12.31,7.45,7.45,0,0,0-1.73.81,7.23,7.23,0,0,0-1.36,1.13,9.28,9.28,0,0,0-1,1.25c0-.2-.06-.43-.1-.71s-.09-.56-.15-.86-.12-.56-.19-.83a2.24,2.24,0,0,0-.22-.6,9.87,9.87,0,0,0-1.13-.19,11.5,11.5,0,0,0-1.25-.06,12.71,12.71,0,0,0-1.29.06,9.5,9.5,0,0,0-1.17.19V43.94Z"/><path class="cls-4" d="M240.37,43.94a6.15,6.15,0,0,1-.35-1,12.23,12.23,0,0,1-.27-2.82V28.71a17.59,17.59,0,0,0-5.91,0V40.29a18.71,18.71,0,0,0,.33,3.65Z"/><path class="cls-4" d="M252.67,43.94V28.71a17.41,17.41,0,0,0-5.88,0V43.94Z"/><path class="cls-4" d="M258.63,33.21V43c0,.35,0,.65.06,1h6.05c0-.07-.05-.12-.07-.19a8.37,8.37,0,0,1-.21-2.08V33.21h5a10.58,10.58,0,0,0,.17-1.21c0-.36,0-.74,0-1.13s0-.7,0-1a9,9,0,0,0-.17-1.12h-5v-6.3h-1l-7.79,10,.21.84Z"/><path class="cls-4" d="M279.54,43.94a11.15,11.15,0,0,1-.74-4.4,9.9,9.9,0,0,1,1-5,3.55,3.55,0,0,1,3.31-1.73,3.59,3.59,0,0,1,3.35,1.73,9.9,9.9,0,0,1,1,5,11.15,11.15,0,0,1-.74,4.4h6.12a14.81,14.81,0,0,0,.62-4.4,15.36,15.36,0,0,0-.62-4.46,9.89,9.89,0,0,0-1.92-3.6,9,9,0,0,0-3.25-2.4,11.17,11.17,0,0,0-4.58-.87,11,11,0,0,0-4.56.87,8.84,8.84,0,0,0-3.21,2.4,10.2,10.2,0,0,0-1.92,3.6,15,15,0,0,0-.64,4.46,14.49,14.49,0,0,0,.64,4.4Z"/></g></g></svg>