<svg xmlns="http://www.w3.org/2000/svg" viewBox="0 0 63.02 73.84"><defs><style>.cls-1{fill:#c22645;}.cls-2{fill:#eab530;}</style></defs><title>logo-movil</title><g id="Capa_2" data-name="Capa 2"><g id="Capa_1-2" data-name="Capa 1"><path class="cls-1" d="M33.18,55l.06,3.88-3.5.06-.06-3.75A11.1,11.1,0,0,1,21.45,52l3.07-3.18a7.89,7.89,0,0,0,5.54,2L30,44.58l-1.11-.12a8.31,8.31,0,0,1-4.82-2,6.42,6.42,0,0,1-1.84-4.8c-.07-4,2.59-7,7.09-7.53L29.23,27l3.5-.06L32.78,30a10.11,10.11,0,0,1,6.88,2.73l-3,3.07a6.85,6.85,0,0,0-4.29-1.6l.1,6,1.32.19a8.38,8.38,0,0,1,4.75,1.87,6.82,6.82,0,0,1,2,5.17C40.59,51.73,37.51,54.38,33.18,55ZM29.8,34.32c-2,.31-3,1.57-3,3.1a2.36,2.36,0,0,0,.76,1.75,4.14,4.14,0,0,0,2.3.94ZM35,45.64a4.3,4.3,0,0,0-2.48-.86l.1,6c2.07-.28,3.2-1.34,3.18-3A2.77,2.77,0,0,0,35,45.64Z"/><path class="cls-2" d="M36.9,6.11a1.6,1.6,0,0,1-1.76,1.34H27a1.6,1.6,0,0,1-1.76-1.34V1.34A1.6,1.6,0,0,1,27,0h8.12A1.6,1.6,0,0,1,36.9,1.34Z"/><path class="cls-1" d="M31.11,66.07a23.34,23.34,0,1,1,0-46.67,3.89,3.89,0,0,0,0-7.77,31.11,31.11,0,1,0,0,62.21,3.89,3.89,0,0,0,0-7.77Z"/><path class="cls-2" d="M44.3,23.89a2.24,2.24,0,0,1-1.89-3.43l2.72-4.34a2.24,2.24,0,0,1,3.79,2.37L46.2,22.84A2.22,2.22,0,0,1,44.3,23.89Z"/><path class="cls-2" d="M53.33,33.21a2.24,2.24,0,0,1-1-4.22l4.56-2.36a2.24,2.24,0,0,1,2,4L54.36,33A2.24,2.24,0,0,1,53.33,33.21Z"/><path class="cls-2" d="M56.24,60.85a2.21,2.21,0,0,1-1.13-.31L50.69,58A2.24,2.24,0,1,1,53,54.09l4.42,2.59a2.24,2.24,0,0,1-1.13,4.17Z"/><path class="cls-2" d="M45.2,71.12a2.24,2.24,0,0,1-2-1.16l-2.48-4.48a2.24,2.24,0,0,1,3.92-2.17l2.48,4.49a2.24,2.24,0,0,1-.88,3A2.2,2.2,0,0,1,45.2,71.12Z"/><path class="cls-2" d="M60.78,44.81H55.66a2.24,2.24,0,1,1,0-4.48h5.12a2.24,2.24,0,1,1,0,4.48Z"/></g></g></svg>