<svg xmlns="http://www.w3.org/2000/svg" xmlns:xlink="http://www.w3.org/1999/xlink" viewBox="0 0 780 600.08"><defs><style>.cls-1{fill:url(#Degradado_sin_nombre_6);}.cls-2{mask:url(#mask);}.cls-3{fill:#f7f7f8;}</style><linearGradient id="Degradado_sin_nombre_6" x1="384.08" y1="158.21" x2="384.08" y2="38.94" gradientUnits="userSpaceOnUse"><stop offset="0" stop-color="#fff"/><stop offset="1"/></linearGradient><mask id="mask" x="0" y="0" width="780" height="600.08" maskUnits="userSpaceOnUse"><rect class="cls-1" x="1.86" y="19.34" width="764.43" height="527.48"/></mask></defs><title>mapa</title><g id="Capa_2" data-name="Capa 2"><g id="Capa_1-2" data-name="Capa 1"><g class="cls-2"><path class="cls-3" d="M364.48,0l-4.27,2.53L387,47.65c-5.79,6.55-27,30.52-28.5,32.57s-37,55.72-42.73,64.4C290.79,127.78,259.53,127,257.81,127h-.34l-.33.08c-1.65.44-40.53,10.82-57.32,25.72-4.37,3.88-14.71,4.57-29.22,2l5.61-39.51L207.84,6l-8.35-2.42L167.77,113.1,162.09,153c-24.82-5.9-49.8-17.62-51.59-21.23-3.58-8.27-34.35-60-35.66-62.24L70.57,72c.32.53,31.91,53.7,35.37,61.68,2.94,6.76,32.77,18.83,55.44,24.19l-1,7.39c-25-5.86-50.23-17.71-52-21.34-3.58-8.27-34.35-60-35.65-62.24l-4.28,2.54c.32.54,31.91,53.7,35.37,61.68,3,6.81,33.17,19,55.9,24.3l-3.58,25.1,14.26,40.26L168.58,276l-16.15,23.9c-9.61,14.26-20.66,30.62-31.65,46.83L110.51,331.9,18.85,271.16,0,273.4,1,282l15.68-1.87,87.6,58.06,11.24,16.23c-25.81,38-49.91,73.25-52.41,76a3.37,3.37,0,0,1,.78-.62l4.46,7.47c1.3-.78,2.32-1.39,47.21-67.45l6.16-9.09,58.71,45.5,31.42,51.15c-6.25,6.72-12,13.06-17.15,18.69-2.45,2.69-4.8,5.28-7,7.65L146.5,436.21l-.21-.25L113.7,413.81l-13.07,17.47,4,3,10.22-13.67,15.39,10.46L116.9,441.22l3,3.95L134.55,434l8.41,5.71,1.5,1.73-23.65,14.18,2.56,4.26,24.4-14.62,36.59,42.19a103,103,0,0,1-8.4,8.45c-11.3,8.87-44.49,27.73-44.83,27.92l5.52,9.72c1.39-.79,34.26-19.46,46.22-28.85,3.46-2.71,10.09-10,20.13-21,4.38-4.82,9.43-10.36,15-16.32l29.92,48.72,9.83,7.73c-25.18,15.51-42.95,26.66-43.73,27.7l4,3a1.37,1.37,0,0,1-.26.29c1.6-1.36,19.8-12.69,44.17-27.67l25.47,20,7.7,17.74,4.56-2-4-9.28,46.78,36.83,5.38-6.83L288.28,536.8l-8.37-19.3-.7-1.07c23-14.09,48.83-29.84,70.82-43.21l5.8,22.38,68.56,98.78,7.14-5L406.2,552.93l44.61-26.27,26.87-13.83,8.56,49c-4.2,1.68-14.8,6-25.34,10.5-28.46,12.21-28.79,14-29.11,15.81l4.89.89a1.8,1.8,0,0,1-.32.75c2.3-2.58,27.1-13.47,50.75-22.95l5.8,33.22,4.89-.85-5.9-33.81,23.59-4.29L535,535l88.74,23.47,1.27-4.8L537.4,530.48l26.76-67.35,9.49,1.72,128.77,61,2.13-4.49L575.18,460.07,566,458.42l13-32.7c41.51,26.77,109.51,65.2,113.37,67.38l2.45-4.33c-1.26-.7-122.58-69.27-141.24-87.29,15.78,8.6,28.73,15.1,38.26,18.77,41.54,26,99.19,58.62,102.74,60.62l2.44-4.32c-.79-.45-49.41-27.93-89.87-52.67,4.68.43,9.52,1,14.24,1.54,21.37,2.49,41.56,4.84,53.31-3.31,13.14-9.12,65.72-56.95,67.95-59l-7.52-8.27c-.55.5-54.26,49.36-66.81,58.07-8.27,5.74-27.27,3.53-45.63,1.39-5.87-.69-11.93-1.39-17.73-1.85-7.17-.57-25.82-9.78-47.21-21.45a31.47,31.47,0,0,1-3.08-2.91c-10.27-11.56-49.65-55.23-79.87-86.65a56.76,56.76,0,0,1,9.51-3.35c6.47-1.23,42.84,7.32,72.07,14.18,61.1,14.36,90.83,20.61,99.46,15.94,2.79-1.5,9.21-5.37,17.74-10.62l42.09,39.94,3.42-3.61-41.14-39c17.31-10.71,41.22-25.75,61.56-38.6,3.4,3.12,5.51,5.09,5.94,5.59,0,0-.06-.08-.08-.1l4.08-2.84c-.28-.41-2.29-2.32-5.61-5.38,19.29-12.2,34.5-21.86,36.14-22.9l-6-9.44c-.43.27-17.41,11.07-38.72,24.53-19.22-17.4-54.07-48.38-79.91-71.3l44.68-49.87c18.79,16.23,47.35,41.33,49.3,44.25a2.13,2.13,0,0,1-.19-.44l4.77-1.4c-.32-1.1-.69-2.35-26.89-25.45-9.8-8.64-19.63-17.16-23.67-20.66L759.6,78.14l-3.7-3.31L722.62,112l-37-37.55,20.3-21.66-5.44-5.1-51.6,55.06-.16.17-23.76,32.57-17.63-17.4,58.77-60.52-3.56-3.46-62.2,64.06L622,139.52v0l-39.39,34.15-14.88-24.1,1-26.2L561.09,108h0L553.29,92.2,582.6,45.79l-4.2-2.65L547.6,91.9l5.55,11.27L469.6,52.06c26.31-10.12,51.09-19.89,51.35-20l-1.82-4.63c-.29.12-28.86,11.38-57.21,22.24-40.6,15.56-52.5,19.49-55.92,20.38L393.76,49.4l75-22.88-1.45-4.75L391.15,45Zm25.13,52.15L420,103.48,392.3,124.8l-9.07-27.32-24-9.58c1.79-2.68,2.94-4.39,3.18-4.7C363.53,81.73,378.52,64.69,389.61,52.15Zm-33.17,40,22.8,9.11L389.79,133l32.8-25.21,3.84,6.48h0l15,25.39.28.47,12.15,8.41,7.5,19.82,2.7,4.39-95.91,32.12c-13.1-13.59-24.75-27.29-31.81-38.92a67.54,67.54,0,0,0-16.63-18.42C328.61,134.11,346.92,106.42,356.44,92.12ZM457.38,283.73c-7.56-7.44-13.51-12.88-16.75-15-10.87-7.17-42-32.89-68.59-59.89l94.72-31.72,45.87,74.81ZM529.09,456.8l-20,36.39-7.17-2.83L518,454.8Zm-18.52-3.35,2.41.44-15.67,34.65-7.86-3.11,5.91-32.75Zm-33.08,27.26c.82-11.45,2.58-23.93,4.34-28.72l8.53.43-5.63,31.15Zm-3.44-15.15c-.72,5.4-1.19,10.73-1.44,13.85L442.37,474l4.78-23.72,29.59,1.5A85.94,85.94,0,0,0,474.05,465.56ZM350.49,440.35l-17.59-67.8c2.27-1.17,4.52-2.31,6.77-3.43l10.46,1.22,35.71,39.14c-1.94,13.28-4.24,27.72-5.3,32.4Zm-55.1-2.17c-.11.09-11.61,9.41-22.86,18.8-6.62,5.53-11.87,10-15.6,13.3-2.12,1.87-3.69,3.29-4.85,4.42L235.35,449c24.2-25,53.37-52.31,78.74-66.36q5.46-3,10.9-5.9l16.39,63.19-45.25-2.3Zm-54.34-233.5c-.69,5.71-2.3,18.88-2.8,22.24a14.18,14.18,0,0,1-2,1.17l-21.93-26.66Zm2,23.72c.42-2.31,2.55-19.91,2.94-23.12l26.27,3.2,8.43,10.69-9.19,9.36L294.27,276l-13.94,9.41-1.94-6.11L239.44,232C242.75,230,242.92,229.1,243.05,228.4Zm77.87,91,23.74-19.1,4.91,6.22L326.67,328Zm20.66-23L318.48,315l-17.87-37.24,17.14-11.57ZM315.43,320.1l24.37,36.46q-5.83,2.88-11.65,5.86l-42.46-60.19-3.79-11.89,14.55-9.81Zm14,12.06,23.19-21.75,23.22,29.45-2.73,1.51c-9.36,3.89-19.08,8.29-28.84,13ZM356.29,307l1-.92.15-.14,39.73-52.21c16.77,14.94,31.65,26.81,38.52,31.35,3.08,2,8.87,7.34,16.27,14.65-24.82,12.07-56.81,29.5-71.66,37.69Zm37.16-56.6-39.72,52.2-.52.48-47-59.53,50.38-29.16C368.12,226.77,381.16,239.3,393.45,250.4Zm-78.79,11.84-16.22,10.95-20.95-43.67,6.3-6.42Zm-44.05,21.29,2.21,7L252.94,303.9c-11.8-21.22-24.21-43.62-34.85-62.91,5.59-2.05,9.91-3.75,13.27-5.17Zm3.78,11.88,3.42,10.73,42.56,60.34q-5.92,3.13-11.69,6.33c-4.13,2.29-8.32,4.89-12.55,7.72-5-8.26-21.89-38.35-40.77-72.28Zm-22.31,17.17c27.34,49.12,36.61,65.27,40,70.75-7.9,5.56-15.89,11.91-23.82,18.72l-58.33-63.12L251.23,311C251.51,311.55,251.8,312.06,252.08,312.58Zm95.8,52.49c10.68-5.16,21-9.79,30.58-13.75l18.25,9.61,45.73,8.26,4.55,7.46Zm78.79-39.93c12.09-6.34,23.8-12.31,33.61-17,16.55,16.87,37.88,39.83,55.7,59.3l-9.87-5.7c-37.33-21.59-60.64-34.89-69.12-36.42A37.87,37.87,0,0,0,426.67,325.14Zm30-27.69c-8.27-8.21-14.8-14.23-18.26-16.51-12-7.95-48.9-38.62-76.94-68.58l5.36-1.8c27.3,28,59.84,54.89,71.05,62.3,4.07,2.68,12.84,11.06,23.83,22.23Q459.28,296.21,456.68,297.45Zm-253.56-141c15.1-13.41,51-23.48,54.94-24.54,4.55.17,53.56,2.8,74.07,36.6,6.92,11.4,18.17,24.76,30.88,38.07l-5.23,1.76c-9.69-10.64-18.07-21.05-23.61-30.19-22.82-37.6-76.3-38.95-78.56-39h-.35l-.33.09c-1.65.43-40.53,10.81-57.32,25.72-4.33,3.84-14.49,4.55-28.76,2.06l1.05-7.38C186.26,162.58,197.43,161.52,203.12,156.47ZM187,400.39l-60.4-46.81c17.68-26.08,32.82-48.54,33-48.81l17.52-25.94,1.91-44.56L165,194.43,168.15,172c16.12,2.82,27.12,1.73,32.76-3.28,15.1-13.41,51-23.47,54.94-24.53,4.55.16,53.56,2.79,74.07,36.59,5.5,9.06,13.74,19.36,23.27,29.89l-50.05,29L274.9,203.8l-65.15-7.93-1.22-1.48L189.84,191l-1.54,8.56,15.54,2.81L228,231.77c-4.39,1.82-9.56,3.81-14.37,5.54l-2.73,1,1.4,2.55c.19.34,17.84,32.32,36.48,65.83l-46.48,31.37,62.16,67.27C248.06,419.78,232.06,436,218,450.86Zm67.44,109.79-30.37-49.44q3.73-4,7.7-8.11l40.44,62.22-6.65,4.09Zm21,9.68,4.54,10.46-10.28-8.1L275,519Zm1-7.61L254.85,479c4.84-5,27.91-24.12,42.93-36.31l44.91,2.28,6,23.28C324.6,482.86,298.91,498.51,276.49,512.25Zm75.3-66.87L442.13,450l-5.23,26,3.89,18.57-39.52-13-35.2,13.53-2.21-3.18ZM369,499.3l32.41-12.45L442,500.14l4.83,23.11-43.44,25.58Zm82.38,21.49-8.75-41.74,30.12,5.44,4.05,23.21Zm39.68,39.73-8.46-48.46,21.2,3.29,26.69,17.45-17.8,23.79Zm41.82-32.09-27.26-17.82-23.92-3.72-3.59-20.6,33.26,13.13,22.89-41.69,24.92,4.5Zm-21.58-79.9-30-1.53-.54-1.32a4.4,4.4,0,0,0-1.65,1.21l-35.56-1.81-.38-.08v.06l-15.22-.77,5.69-33.81-4.9-.82L422.9,444l-37.34-1.9c1.12-4.69,2.61-14.1,5.37-33.1l.17-1.16-33.44-36.65,93.24,10.89,84.53,55.63,31.09,6L561,457.52Zm37.48-44.89c3.52,4,13.21,10.94,26,19.32L568.39,439l-31-6L453.6,377.94l-8.08-13.24-47.17-8.52-13.85-7.3c23.45-9.26,42-14.12,50.5-12.59,7,1.26,38.09,19.24,65.52,35.1,14.38,8.31,27.67,15.95,39.68,22.68C544,398.26,546.92,401.55,548.77,403.64Zm-5.17-20.47c-4.48-2.52-9-5.07-13.46-7.63-19-20.86-45.14-49.26-65.12-69.68q2.6-1.22,5-2.28C495.23,329.81,527.72,365.53,543.6,383.17Zm107-64.81c-1.18.41-6.87,1.26-32.32-3.7-16.22-3.16-36-7.76-55.36-12.31l5.7-31.55-4.89-.88-5.66,31.29c-41.6-9.77-67.54-15.67-75.86-14.08-3.26.62-8.8,2.73-15.71,5.79-1.25-1.28-2.48-2.53-3.68-3.73l62.25-35.86,4.26-23.63,27-23.38L665.21,309.64C658.24,313.92,653,317,650.63,318.36ZM582.13,224l46.94-46.16,19.26,17.07-44.51,49.67Zm148.8,44.56c-20.79,13.12-44.75,28.19-61.34,38.43l-62.16-59,44.62-49.8C681.15,224,712.93,252.28,730.93,268.52ZM627.48,144.61l27-37,27.75-29.6,37.11,37.63-67.65,75.49-21-18.63L628.89,171l-50.37,49.53-18.43-17.49,67.07-58.16ZM554.89,197.7,538.23,179l26.43-24.85L578.77,177Zm8.75-73.24-.91,24.68L531.3,178.69,551.13,201,522.5,225.79l-4.12,22.81-1.44.83-51.06-83.27L458,145.33l-12.53-8.67L431,112.27l74.36-32.5,51.89,31.74ZM463.7,54.32l.05,0L500.2,76.6,428.46,108,408.62,74.48c.65-.19,1.36-.41,2.12-.66,3.1-1,7.58-2.54,13.31-4.62C433.69,65.72,447,60.71,463.7,54.32ZM406.84,71.47Zm76,134,2.64,4.21-31.31,19.59-2.64-4.21ZM307.89,160.7l-24.55,26-27.56-10.33,1.75-4.65L282,180.89l22.28-23.6Z"/></g></g></g></svg>