<svg xmlns="http://www.w3.org/2000/svg" xmlns:xlink="http://www.w3.org/1999/xlink" viewBox="0 0 406.82 475.93"><defs><style>.cls-1{fill:url(#Degradado_sin_nombre_6);}.cls-2{mask:url(#mask);}.cls-3{fill:#f7f7f8;}</style><linearGradient id="Degradado_sin_nombre_6" x1="256.01" y1="84.21" x2="256.01" y2="-36.25" gradientUnits="userSpaceOnUse"><stop offset="0" stop-color="#fff"/><stop offset="1"/></linearGradient><mask id="mask" x="0" y="-56.03" width="510.69" height="532.71" maskUnits="userSpaceOnUse"><rect class="cls-1" x="1.34" y="-56.03" width="509.35" height="532.71"/></mask></defs><title>mapa-movil</title><g id="Capa_2" data-name="Capa 2"><g id="Capa_1-2" data-name="Capa 1"><g class="cls-2"><path class="cls-3" d="M406.82,222.39l-1.72-2.6L374.51,236.1c-4.44-3.53-20.69-16.45-22.08-17.39s-37.77-22.57-43.66-26.07c11.42-15.21,12-34.28,12-35.33v-.21l-.06-.2c-.3-1-7.33-24.73-17.44-35-2.63-2.66-3.09-9-1.34-17.83l26.79,3.43,74,19.3,1.64-5.1-74.22-19.35-27-3.47c4-15.14,11.95-30.38,14.39-31.48,5.61-2.18,40.71-21,42.2-21.75L358,43.06c-.37.2-36.41,19.47-41.82,21.58-4.58,1.79-12.76,20-16.4,33.83l-5-.64c4-15.23,12-30.65,14.47-31.75,5.6-2.19,40.7-21,42.19-21.76l-1.72-2.61c-.36.2-36.4,19.47-41.81,21.59-4.62,1.8-12.88,20.23-16.47,34.1l-17-2.19-27.3,8.71-27.4-1.06L203.5,93c-9.67-5.87-20.76-12.61-31.75-19.31l10.06-6.27L223,11.5,221.47,0l-5.86.63,1.27,9.57L177.52,63.65l-11,6.85c-25.79-15.75-49.66-30.45-51.54-32a2.07,2.07,0,0,1,.42.48l-5.06,2.72c.52.79.94,1.42,45.73,28.81l6.15,3.76-30.84,35.82L96.7,129.28C92.14,125.47,87.85,122,84,118.82l-5.18-4.26L111.1,89.39l.16-.13,15-19.88-11.84-8-2,2.43,9.26,6.24-7.09,9.39-6.89-8.13L105,73.17l7.58,8.93-3.88,5.13-1.17.92L97.94,73.72l-2.89,1.55L105,90.16l-28.6,22.33a68,68,0,0,1-5.73-5.12c-6-6.9-18.8-27.15-18.93-27.36l-6.59,3.37c.54.85,13.2,20.9,19.56,28.2,1.84,2.11,6.78,6.16,14.26,12.28,3.26,2.68,7,5.76,11.06,9.13L57,151.25l-5.25,6C41.21,141.88,33.65,131,33,130.57l-2,2.42a1.34,1.34,0,0,1-.2-.16c.92,1,8.6,12.08,18.77,27L35.9,175.33l-12,4.69,1.34,2.78,6.3-2.45-25,28.54,4.63,3.28L42.9,175.9,56,170.79l.73-.43c9.55,14,20.23,29.8,29.3,43.22l-15.18,3.54-67,41.82,3.36,4.36L32,247.85l17.81,27.22,9.38,16.39-33.24,5.22c-1.15-2.56-4.06-9-7.12-15.46-8.28-17.36-9.52-17.56-10.73-17.76l-.59,3a1.17,1.17,0,0,1-.51-.19c1.75,1.41,9.13,16.54,15.56,31L0,300.75l.58,3,22.92-3.6,2.91,14.39,17.71,11.93L28.21,380.61l3.26.77L47.18,327.9l45.67,16.33L91.68,350,50.3,428.59l3,1.3L94.92,351,96,345.37l22.17,7.93c-18.15,25.32-44.2,66.81-45.68,69.17L75.46,424c.48-.76,47-74.79,59.18-86.17-5.83,9.62-10.23,17.53-12.72,23.34-17.66,25.35-39.74,60.52-41.1,62.69l2.93,1.49c.3-.48,18.93-30.15,35.7-54.83-.29,2.85-.67,5.8-1,8.68-1.69,13-3.28,25.36,2.24,32.53,6.19,8,38.61,40.1,40,41.46l5.6-4.59c-.33-.33-33.46-33.11-39.36-40.76-3.89-5.05-2.39-16.64-.94-27.85.46-3.57.94-7.27,1.25-10.82.39-4.36,6.63-15.75,14.54-28.8a21.33,21.33,0,0,1,2-1.88c7.84-6.26,37.44-30.29,58.75-48.73a32.65,32.65,0,0,1,2.27,5.8c.83,4-5,26.14-9.62,44-9.73,37.29-14,55.43-10.8,60.69,1,1.71,3.64,5.62,7.2,10.83l-27.08,25.68,2.45,2.09,26.46-25.1c7.26,10.56,17.46,25.14,26.17,37.55-2.11,2.08-3.45,3.37-3.79,3.63l.07-.05,1.92,2.49c.28-.17,1.58-1.4,3.65-3.43,8.27,11.78,14.82,21.06,15.53,22.06l6.39-3.66c-.18-.26-7.5-10.63-16.62-23.63,11.79-11.73,32.79-33,48.33-48.76l33.81,27.27c-11,11.46-28,28.89-30,30.08a1.39,1.39,0,0,1,.3-.12l1,2.91c.74-.2,1.59-.42,17.25-16.41,5.86-6,11.64-12,14-14.44l42.54,34.31,2.25-2.25-25.18-20.31,25.46-22.6,14.68,12.39,3.45-3.32L337.18,395.9l-.11-.09L315,381.31l11.8-10.75,41,35.85,2.34-2.17-43.42-37.95-14.5,13.22h0l-23.15-24,16.33-9.08,17.77.59,10.41-4.61h0l10.73-4.75,31.47,17.88,1.79-2.56-33.05-18.79-7.65,3.39,34.66-51c6.86,16.05,13.48,31.17,13.55,31.34l3.13-1.12c-.07-.17-7.71-17.6-15.07-34.9-10.55-24.77-13.22-32-13.82-34.12l14-7.47L388.84,286l3.22-.88-15.75-46.47Zm-35.35,15.34-34.81,18.56-14.45-16.92,18.53-5.54,6.49-14.63c1.82,1.1,3,1.8,3.18,1.94C351.41,221.81,363,231,371.47,237.73Zm-27.1-20.25-6.18,13.92-21.54,6.43,17.09,20-4.39,2.34h0l-17.21,9.18-.32.17-5.7,7.42-13.44,4.57-3,1.64-21.77-58.52c9.21-8,18.5-15.1,26.39-19.4A44.42,44.42,0,0,0,306.8,195.1C315.9,200.51,334.67,211.68,344.37,217.48Zm-129.9,61.6c5-4.61,8.73-8.25,10.18-10.22,4.86-6.63,22.3-25.63,40.6-41.86l21.51,57.8-50.72,28ZM97.14,322.83,72.46,310.64l1.92-4.37,24.12,9.81Zm2.27-11.3-.3,1.47-23.49-9.56,2.11-4.8,22.2,3.61ZM80.93,291.35c7.76.5,16.22,1.57,19.47,2.65l-.3,5.2L79,295.77Zm10.27-2.1c-3.66-.44-7.28-.73-9.39-.88l3.7-18.45,16.08,2.91-1,18.06A65,65,0,0,0,91.2,289.25Zm17.09-75.4,46-10.72q1.19,2.07,2.33,4.12l-.83,6.39-26.53,21.79c-9-1.19-18.79-2.59-22-3.24Zm1.47-33.61c-.06-.07-6.38-7.08-12.75-14-3.74-4-6.77-7.24-9-9.52-1.27-1.29-2.23-2.25-3-3l17.46-10.21c16.93,14.77,35.46,32.57,45,48.05q2.06,3.33,4,6.65l-42.84,10,1.56-27.61Zm158.3-33.16c-3.88-.42-12.8-1.4-15.08-1.71a8.69,8.69,0,0,1-.79-1.22l18.07-13.38ZM252,148.3c1.57.25,13.5,1.56,15.67,1.79l-2.17,16-7.24,5.15-6.35-5.61-32.18,13.89-6.38-8.5,4.14-1.19,32.1-23.76C250.86,148.11,251.5,148.22,252,148.3ZM190.3,195.82l12.95,14.48-4.22,3-14.55-14Zm15.6,12.6-12.61-14.1,25.25-10.9,7.85,10.46Zm-16.09-16-24.72,14.87c-1.29-2.37-2.62-4.75-4-7.1l40.81-25.92L210,172l6.65,8.87ZM181.64,201l14.74,14.15-20,14.17c-.44-.71-.79-1.27-1-1.67-2.64-5.71-5.62-11.64-8.81-17.59Zm17.05,16.37.63.6.09.09,35.4,24.24c-10.14,10.24-18.18,19.32-21.26,23.51-1.38,1.88-5,5.41-9.93,9.92-8.18-15.14-20-34.66-25.55-43.72Zm38.37,22.67-35.38-24.24-.33-.32,40.36-28.65,19.77,30.74C253.09,224.61,244.59,232.57,237.06,240.07ZM229,192l-7.43-9.9,29.61-12.78,4.35,3.85ZM214.6,165.12l-4.71,1.34-9.09-12.13c14.38-7.2,29.57-14.76,42.64-21.26,1.39,3.41,2.54,6.05,3.51,8.09Zm-8,2.3-7.28,2.09-40.9,26q-2.13-3.61-4.3-7.14c-1.54-2.51-3.31-5.07-5.23-7.65,5.61-3.06,26-13.36,49-24.88Zm-11.64-13.61c-33.3,16.68-44.25,22.34-48,24.39-3.76-4.81-8.07-9.69-12.69-14.53L177,128.08,196,153.29C195.61,153.47,195.26,153.64,194.91,153.81Zm-35.59,58.45c3.5,6.52,6.64,12.8,9.32,18.66l-6.51,11.14-5.6,27.9-5.06,2.78Zm27.08,48.08c4.3,7.38,8.34,14.52,11.54,20.51-11.44,10.09-27,23.11-40.2,34l3.86-6c14.64-22.78,23.66-37,24.7-42.18A20.89,20.89,0,0,0,186.4,260.34Zm18.76,18.31c5.57-5,9.65-9,11.2-11.14,5.39-7.34,26.18-29.84,46.49-46.95l1.22,3.27c-19,16.66-37.21,36.51-42.23,43.36-1.82,2.48-7.5,7.83-15.08,14.53C206.26,280.73,205.72,279.71,205.16,278.65Zm95.58-154.72c9.09,9.22,15.92,31.15,16.64,33.53-.12,2.77-1.9,32.68-24.81,45.2-7.73,4.22-16.79,11.08-25.82,18.84l-1.18-3.19A139.79,139.79,0,0,1,286,203.9C311.52,190,312.44,157.34,312.47,156v-.21l-.06-.2c-.29-1-7.33-24.73-17.44-35-2.6-2.63-3.08-8.84-1.4-17.55l5,.64C296.6,113.65,297.32,120.47,300.74,123.93Zm-165.36-9.81,31.73-36.85c17.68,10.79,32.91,20,33.09,20.14l17.59,10.69,30.2,1.16,27-8.61,15.23,1.95c-1.91,9.83-1.17,16.55,2.22,20,9.1,9.21,15.92,31.14,16.64,33.52-.11,2.78-1.9,32.68-24.81,45.2A141.13,141.13,0,0,0,264,215.5L244.38,185l24.28-17.24L274,128l1-.74,2.28-11.41-5.8-.94-1.9,9.49-19.93,14.75c-1.23-2.67-2.58-5.83-3.75-8.76l-.67-1.67-1.73.86c-.23.11-21.91,10.88-44.63,22.25l-21.27-28.36L132,161.38c-9.8-10-20.79-19.79-30.87-28.34ZM61,155.27l33.51-18.53c1.8,1.53,3.64,3.09,5.51,4.7L57.78,166.12,55,162.06Zm-6.57,12.84-7.08,2.77,5.48-6.28L55,167.78Zm5.17.6L82.12,155.5c3.39,2.95,16.35,17,24.62,26.19l-1.55,27.41-15.78,3.68C79.47,198.06,68.86,182.38,59.55,168.71Zm45.33,45.94-3.11,55.12-17.62-3.19L71.56,269l8.78-24.11-9.17-21.48L73.33,222ZM68.32,225.14l8.45,19.78-9,24.75-15.66,2.95-17.35-26.5ZM53.76,275.41l28.3-5.34-3.69,18.38-15.74,2.47ZM26.82,299.62l32.86-5.16-2.24,12.93L45.61,323.68,29.49,312.82Zm21.76,25.52,12.08-16.63,2.52-14.6,14-2.19L68.24,312l28.27,14-3.05,15.2ZM102.74,312l1-18.32.89-.33a2.59,2.59,0,0,0-.82-1l1.23-21.69,0-.24h0l.52-9.29,22.92,3.47.56-3L105.79,258l1.29-22.78c3.18.68,9.56,1.59,22.44,3.27l.79.11,24.85-20.41-7.39,56.89L110.06,326.7l-4.06,19-9.35-3.34Zm30.44,22.87c-2.69,2.15-7.42,8.06-13.1,15.86l-10.89-3.89,4-18.94,37.36-51.1,9-4.93,5.77-28.78,5-8.45c6.28,14.31,9.58,25.64,8.54,30.81-.86,4.27-13.05,23.24-23.8,40-5.64,8.77-10.82,16.88-15.38,24.21C136.83,331.91,134.59,333.71,133.18,334.84Zm13.88-3.16c1.7-2.73,3.43-5.48,5.17-8.21,14.14-11.57,33.39-27.54,47.24-39.73.55,1.06,1.06,2.06,1.54,3C183.23,302.17,159,322,147.06,331.68ZM191,397c-.28-.72-.85-4.19,2.51-19.72,2.14-9.9,5.26-21.94,8.35-33.78L223.23,347l.6-3-21.21-3.45c6.62-25.38,10.62-41.21,9.54-46.29a50.74,50.74,0,0,0-3.92-9.58c.86-.77,1.71-1.51,2.53-2.25l24.3,38,16,2.61,15.84,16.45-70,66.44C194,401.64,191.88,398.46,191,397Zm64-41.79,31.29,28.64-11.57,11.75L241,368.43ZM224.78,446c-8.9-12.69-19.11-27.31-26.05-37.43l40-37.93,33.76,27.23C255,415.62,235.79,435,224.78,446Zm84-63.12,25.06,16.45,20.07,16.93L328.4,438.89l-51.18-41.28,12.62-12.82,1.05-1.06L257.31,353l11.85-11.24,39.43,40.92Zm-36-44.3,12.68-10.16,16.84,16.13-15.48,8.6Zm49.65,5.34-16.73-.55-20-19.18-15.1,12.1-16.83-17.47-15.47-2.52-.56-.87,56.45-31.16,14.12-4.8,5.88-7.65L330.71,263l22,45.37L331.22,340Zm47.55-61v0L354.89,305.2l-21.26-43.77,22.69-12.1c.13.39.29.82.45,1.29.67,1.89,1.73,4.62,3.13,8.12C362.26,264.62,365.66,272.76,370,282.93Zm-11.62-34.69Zm-12.43,32.83-4.63,2.5-21.5-29.7,4.62-2.49Zm49.14-165.92L366.53,91.86l11.34-26.13L383,67.38,372.91,90.59l25.92,21.13Z"/></g></g></g></svg>