<svg xmlns="http://www.w3.org/2000/svg" xmlns:xlink="http://www.w3.org/1999/xlink" viewBox="0 0 227.1 623.09"><defs><style>.cls-1{fill:#f2dad4;}.cls-2{fill:#192b59;}.cls-3{fill:url(#linear-gradient);}.cls-4{fill:url(#linear-gradient-2);}.cls-5{fill:url(#linear-gradient-3);}.cls-6{fill:#e64d4e;}.cls-7{fill:url(#linear-gradient-4);}.cls-8{fill:url(#linear-gradient-5);}.cls-9{fill:url(#linear-gradient-6);}.cls-10{fill:url(#linear-gradient-7);}.cls-11{fill:url(#linear-gradient-8);}.cls-12{fill:url(#linear-gradient-9);}</style><linearGradient id="linear-gradient" x1="56.03" y1="151.24" x2="118.48" y2="292.44" gradientUnits="userSpaceOnUse"><stop offset="0" stop-color="#4e9cff"/><stop offset="0.76" stop-color="#176ad4"/></linearGradient><linearGradient id="linear-gradient-2" x1="116.26" y1="147.62" x2="234.48" y2="414.88" xlink:href="#linear-gradient"/><linearGradient id="linear-gradient-3" x1="129.1" y1="85.25" x2="160.15" y2="85.25" gradientUnits="userSpaceOnUse"><stop offset="0" stop-color="#f2bfad"/><stop offset="1" stop-color="#f2dad4"/></linearGradient><linearGradient id="linear-gradient-4" x1="91.11" y1="147.39" x2="107.59" y2="184.95" gradientUnits="userSpaceOnUse"><stop offset="0" stop-color="#510394"/><stop offset="0.14" stop-color="#4a0388"/><stop offset="0.4" stop-color="#380367"/><stop offset="0.75" stop-color="#1b0433"/><stop offset="1" stop-color="#030408"/></linearGradient><linearGradient id="linear-gradient-5" x1="163.62" y1="137.23" x2="328.54" y2="340.48" gradientUnits="userSpaceOnUse"><stop offset="0" stop-color="#4e9cff"/><stop offset="1" stop-color="#176ad4"/></linearGradient><linearGradient id="linear-gradient-6" x1="50.48" y1="140.1" x2="130.71" y2="186.98" xlink:href="#linear-gradient-3"/><linearGradient id="linear-gradient-7" x1="54.23" y1="244.8" x2="87.07" y2="188.67" xlink:href="#linear-gradient-3"/><linearGradient id="linear-gradient-8" x1="6.6" y1="561.29" x2="69.23" y2="638.47" xlink:href="#linear-gradient-5"/><linearGradient id="linear-gradient-9" x1="145.44" y1="549.95" x2="234.21" y2="659.36" xlink:href="#linear-gradient-5"/></defs><title>men-phone</title><g id="Capa_2" data-name="Capa 2"><g id="Capa_1-2" data-name="Capa 1"><path class="cls-1" d="M170,566.83a32.31,32.31,0,0,0-.93,9.42c0,3,1.59,10.47,2,13.65s22.92-3.48,22.92-3.48.56-5.57.56-8.34-2.83-9.63-3.06-11.25S170,566.83,170,566.83Z"/><path class="cls-1" d="M43.73,562.34c.25,2.34.6,9,.85,10s9.2,13.74,11.79,14.19,5,1.5,6.5,0a9.78,9.78,0,0,0,2.8-5.95c0-1.65.5-14.74,0-15.94S43.73,562.34,43.73,562.34Z"/><path class="cls-2" d="M73.79,293.57C65.87,312,56.07,332.76,55.6,365.41s-8.39,98.66-9.79,114.53-5.64,60.43-6.07,65.16-2.29,12.87,0,15.16,9.16,7.44,20,7.44,17.74-2.43,18.6-3.14,9.16-60,10.3-76,5.87-57,13.74-79.84,22.61-58.29,25.44-58.48,14.34,39.24,16.22,59.24,11.28,58.67,12.39,78,5,75.07,7,77.07,9.54,8.31,19.39,7.39,18.46-4.77,19.08-6.31.15-47.09-.77-63.7-10.62-77.71-10.62-82.78.33-39,2.88-57.53,3.26-56,3.06-61.17a61.45,61.45,0,0,0-6.65-23.66C185.07,267.26,73.79,293.57,73.79,293.57Z"/><path class="cls-3" d="M75.89,113.55C69.5,120,63.43,134.16,62.57,146.29s-6.71,46.76-7.72,52.47-5.34,16.4-1.66,28S64.15,245,66.73,245s14.19-6,16.68-9.12,12.44-14.52,12.44-19.43S75.89,113.55,75.89,113.55Z"/><path class="cls-4" d="M155.82,80.66c2.89-.07,5.28-1.09,6.87.43s5.86,9.19,8,10.13,38.41,15.18,42,19.11-20,114.26-20,128.19.7,43.72,2.41,48.42-12.81,27.75-44,26.68-56.56,1.28-66.6-5.12-18.14-6.19-14.3-20.92,23.06-71.66,22-81S77.92,147.82,76.5,141s-9.11-22.75-.61-27.4,51.55-25.87,57.76-28.3S155.82,80.66,155.82,80.66Z"/><path class="cls-5" d="M149.17,58.64c.19,4.25,1.14,11.36,2.09,14.09s8.89,10.78,8.89,11.93c0,6.52-18.1,27.46-27.3,27.74-2.13.07-3.36-6-3.74-8.31s12.58-41.16,14.25-44.22S149.17,58.64,149.17,58.64Z"/><path class="cls-6" d="M149.55,41.57C147.5,31.81,143.49,12.79,139,7.86s-6.27-4-9.36-6.27S113.89-.77,106.38,2.93,84.46,10.14,81.89,31.65C79.76,49.53,94.26,50.41,97.24,50.31s32.26-1.92,37,0,11.12,2.14,12.53,0S149.55,41.57,149.55,41.57Z"/><path class="cls-7" d="M78.83,148.14l16.54,39.23c.68,1.71,1,2.76,4.81,2.75l18.55.56a3.12,3.12,0,0,0,1.46-3.94l-16.92-41.92a3.1,3.1,0,0,0-3.06-1.95l-18.65,1A3.12,3.12,0,0,0,78.83,148.14Z"/><path class="cls-1" d="M87.55,46.6c-1.68,1.54,1.19,7.13,2,8.32s3.75,5.58,3.75,6.77.27,3.56,1.19,4,3.29,10.14,3.29,12.06,4.75,4.58,8.13,10.52,10.61,19.83,18.1,19.1,18.56-15.72,20.75-21.3,5.3-11.61,3.93-16.63-2.47-7.59-1-7.5,5.94-3.56,6.12-9.41S153,41.6,152,40.08s-1.28-3.15-3.33-3-4.08,2.81-4.55,5.9-.29,5.49-1.29,5.43S128.65,34.59,126.56,32s-12,10.91-22.34,13.15S88.53,45.7,87.55,46.6Z"/><path class="cls-6" d="M136.15,41.19c1.8,5.19,5.72,16,5.93,18.22s1.38,14.29-.53,16.41-9.23,15.77-14,17.48c-3.39,1.22-11.63,2.89-14.3,1s-11.09-11.86-11.11-11.1,2.9,4,5.25,8.64,8.58,16.76,15.39,16.36,15.79-6.63,19-13.38,8.26-15,8.26-20.11S144.19,52.3,143.62,50s.11-3.2.2-4.78S136.15,41.19,136.15,41.19Z"/><path class="cls-8" d="M174.37,200.32c-3,1.71-5.08,28.36-4.41,33s37.12,13,43,10.3,14.1-26.8,14.1-48.74-1.71-79.31-14.47-84.59-24.4,36.74-24.4,43,1,45.47-1.74,45.91S177.56,198.49,174.37,200.32Z"/><path class="cls-9" d="M175.6,200.64c-4.65-2.34-36.42-13.86-38.79-19s-2.71-12.47-3.42-14.63-10.76-7.7-12.67-7.75-6.69,4-7.55,3.82-4.87-1.71-7.84-1.76-9.18-.7-11,.24-3.48,1.93-3.48,3.64,3.89,1.92,5.86,1.92,8.09.46,10.17,1.37,6.13,3.44,6.13,4.23-.76,2.61-1.89,2.57-6.39-2.88-7.85-3.48-5.17-1.38-6,1.12,8.78,6.37,10.07,7.49,4.91,3.79,4,3.79-7.64-3.36-9-3.27-3.15,1.72-2.46,2.84-1.9,6.55-.26,7.06,12.31,10.08,20.15,10.6,16.62,5.59,25,11.45,23.59,19.62,28,19.69,11-2.8,11-12.72S182.39,204,175.6,200.64Z"/><path class="cls-10" d="M79.36,168.27c-1.61,2.41.44,4.59-.35,5.95s-2.07,2.49-1.55,5.63,2.67,3.19,2.79,4.3-.41,2.49.34,4.12S79.42,192.62,77,195s-7.31,6.24-7.57,13-.88,21.31,5,23.2,18.43-18.21,19.19-22S93,201,94.26,199s3.87-5.46,4-6.77,8-3,8.35-3.58,1.35-1.47.84-2.64-1.26-1.52-1.76-1.52,2.61-.44,2.33-2.13-2.9-2.42-4.62-2.35-11.69,1.57-13.12,1.57-4.66.29-4.72-.3,1.88-2.45,5.33-2.51,11.38.24,12.43-.66,1-4.3-1.34-5.07-10.09-1-12.72-1-3.51.71-4.92-.28l.08-.06a3.67,3.67,0,0,1,2.36-.85c3.07,0,8,0,9.59-.48,1.79-.54,2.33-1.08,2.27-2.81s-1.85-3.16-4.12-3.28-7.64-.06-9.26,0S80.47,166.62,79.36,168.27Z"/><path class="cls-11" d="M47.62,571c3.3,1.63,10.94,14.06,12.86,14.06s4.4-7.42,5.23-7.42,2.75,12.93,2.91,16.36,1.25,7.24-3.31,8.37-18.25,2.49-21.68,4.89-8.74,7.29-15.7,7.62-20.56-.31-24-1.81-5.13-4.63-3.06-7.55,17.21-11,21-14.78S37.69,577,38.4,575.46s.22-3.82,1.75-4.09S46.48,570.48,47.62,571Z"/><path class="cls-12" d="M174.6,581.86c-.48,3.55-4.46,4.56-4.68,7.38s-2,7.21-2.16,9.88-.25,6.28,1,7.64,10.1,3.28,10.49,4.83,1.21,6.81,3.67,8.21,8.17,3.38,16.57,3.29c5.07-.06,18.07-.47,17.13-6-1.15-6.81-6.2-8.44-14.05-18.06-1.72-2.1-7.83-13.87-9.61-17.77s-4.16-6.56-9.83-6.29S175.16,577.81,174.6,581.86Z"/></g></g></svg>