<svg id="Grupo_60" data-name="Grupo 60" xmlns="http://www.w3.org/2000/svg" xmlns:xlink="http://www.w3.org/1999/xlink" width="364.448" height="462.907" viewBox="0 0 364.448 462.907">
  <defs>
    <clipPath id="clip-path">
      <rect id="Rectángulo_12" data-name="Rectángulo 12" width="364.448" height="462.907" fill="none"/>
    </clipPath>
    <clipPath id="clip-path-2">
      <path id="Trazado_79" data-name="Trazado 79" d="M160.429,427.979c-1.142.2-.775,1.875-1.305,3.057s-9.51,8.628-12.346,11.464-14.168,8.878-15.712,11.061-.266,4.526,2.29,5.644,12.727,1.6,17.932,1.352,9.18-3.9,11.748-5.7,12.8-2.814,16.214-3.658,2.6-3.689,2.482-6.259S180.18,432.7,179.556,432.7s-2.483,5.552-3.917,5.552-7.147-9.3-9.619-10.515a3.566,3.566,0,0,0-1.34-.172,29.591,29.591,0,0,0-4.251.415" fill="none"/>
    </clipPath>
    <linearGradient id="linear-gradient" x1="-2.009" y1="0.816" x2="-1.993" y2="0.816" gradientUnits="objectBoundingBox">
      <stop offset="0" stop-color="#009cff"/>
      <stop offset="1" stop-color="#006ad7"/>
    </linearGradient>
    <clipPath id="clip-path-4">
      <path id="Trazado_130" data-name="Trazado 130" d="M225.167,426.556c-4.281.2-5.989,2.165-6.406,5.229-.364,2.677-3.369,3.438-3.539,5.567s-1.515,5.441-1.628,7.462-.184,4.741.728,5.762,7.623,2.481,7.914,3.648.912,5.142,2.772,6.2,6.165,2.553,12.511,2.48c3.829-.044,13.635-.353,12.926-4.554-.868-5.138-4.677-6.367-10.6-13.626-1.3-1.59-5.913-10.477-7.25-13.42-1.277-2.807-2.979-4.762-6.848-4.762-.187,0-.379.005-.576.014" fill="none"/>
    </clipPath>
    <linearGradient id="linear-gradient-2" x1="-3.944" y1="0.849" x2="-3.925" y2="0.849" xlink:href="#linear-gradient"/>
    <clipPath id="clip-path-6">
      <path id="Trazado_147" data-name="Trazado 147" d="M152.069,80.59c-.935,1.069-.379,8.239-.08,12.092a28.93,28.93,0,0,1,.2,3.992c-.092.552-2.522,8.283-6.811,21.9-5.218,16.57-11.712,37.193-12.618,40.814-1.461,5.849-1.146,14.548.888,24.5,1.811,8.853,8.9,23.845,9.976,26.082h12.618l-.416-7.286,4.46-14.271.032-.053c.018-.029,1.834-2.969,7.08-10.4,5.2-7.372,14.686-38.964,15.581-45.68.818-6.13,1.261-54.5,1.314-60.65-12.132,2.9-31.1,7.764-32.221,8.963" fill="none"/>
    </clipPath>
    <linearGradient id="linear-gradient-3" x1="-2.478" y1="2.828" x2="-2.459" y2="2.828" gradientUnits="objectBoundingBox">
      <stop offset="0" stop-color="#009cff"/>
      <stop offset="0.759" stop-color="#006ad7"/>
      <stop offset="1" stop-color="#006ad7"/>
    </linearGradient>
    <clipPath id="clip-path-8">
      <path id="Trazado_169" data-name="Trazado 169" d="M214.92,110.93c-.742,14.334.241,65.28.249,65.76l3.99,46.38a35.786,35.786,0,0,0,13.687,8.5c6.689,2.164,11.72,3.566,13.52,4.054l-9.173-69.41,2.077-13.758,30.882-.249c-.832-5.191-7.026-43.81-8.416-51.224-3.045-16.236-5.03-20.049-6.16-20.387-2.337-.7-27.795-9.466-31.814-10.85-1.118,3.77-8.158,27.965-8.842,41.182" fill="none"/>
    </clipPath>
    <linearGradient id="linear-gradient-4" x1="-3.826" y1="2.37" x2="-3.809" y2="2.37" gradientUnits="objectBoundingBox">
      <stop offset="0" stop-color="#009cff"/>
      <stop offset="0.724" stop-color="#006ad7"/>
      <stop offset="1" stop-color="#006ad7"/>
    </linearGradient>
    <clipPath id="clip-path-10">
      <path id="Trazado_177" data-name="Trazado 177" d="M233.193,164.969a66.861,66.861,0,0,1-1.251,8.51s22.025,1,29.534-.5,11.264-4.255,12.014-9.01-3.754-16.27-3.754-16.27l-8.51.5-27.782-3.254s.5,13.266-.251,20.024" fill="none"/>
    </clipPath>
    <linearGradient id="linear-gradient-5" x1="-5.483" y1="10.765" x2="-5.46" y2="10.765" xlink:href="#linear-gradient-3"/>
  </defs>
  <g id="Grupo_39" data-name="Grupo 39">
    <g id="Grupo_38" data-name="Grupo 38" clip-path="url(#clip-path)">
      <path id="Trazado_78" data-name="Trazado 78" d="M163.112,421.222c.187,1.757.449,6.728.635,7.476s6.878,10.279,8.822,10.615,3.7,1.121,4.859,0a7.315,7.315,0,0,0,2.093-4.448c-.037-1.234.376-11.027,0-11.924s-16.41-1.719-16.41-1.719" fill="#fadad4"/>
    </g>
  </g>
  <g id="Grupo_41" data-name="Grupo 41">
    <g id="Grupo_40" data-name="Grupo 40" clip-path="url(#clip-path-2)">
      <rect id="Rectángulo_13" data-name="Rectángulo 13" width="62.208" height="59.294" transform="translate(113.259 440.76) rotate(-39.056)" fill="url(#linear-gradient)"/>
    </g>
  </g>
  <g id="Grupo_43" data-name="Grupo 43">
    <g id="Grupo_42" data-name="Grupo 42" clip-path="url(#clip-path)">
      <path id="Trazado_80" data-name="Trazado 80" d="M271.277,224.119l-1.719-1.037,2.155-3.027-3.218-1.228.709-1.853,3.082,1.636-.327-3.765h2.209l-.355,3.765,3.11-1.636.681,1.853-3.218,1.257,2.182,3-1.773,1.037-1.746-3.409Z" fill="#1a2e35"/>
      <path id="Trazado_81" data-name="Trazado 81" d="M282.133,224.119l-1.719-1.037,2.155-3.027-3.218-1.228.709-1.853,3.082,1.636-.328-3.765h2.21l-.355,3.765,3.11-1.636.681,1.853-3.218,1.257,2.181,3-1.772,1.037L283.9,220.71Z" fill="#1a2e35"/>
      <path id="Trazado_82" data-name="Trazado 82" d="M292.988,224.119l-1.719-1.037,2.155-3.027-3.218-1.228.709-1.853L294,218.61l-.328-3.765h2.21l-.355,3.765,3.11-1.636.681,1.853-3.218,1.257,2.182,3-1.773,1.037-1.746-3.409Z" fill="#1a2e35"/>
      <path id="Trazado_83" data-name="Trazado 83" d="M303.843,224.119l-1.719-1.037,2.155-3.027-3.218-1.228.709-1.853,3.082,1.636-.328-3.765h2.21l-.355,3.765,3.11-1.636.681,1.853-3.218,1.257,2.182,3-1.773,1.037-1.746-3.409Z" fill="#1a2e35"/>
      <path id="Trazado_84" data-name="Trazado 84" d="M314.7,224.119l-1.719-1.037,2.155-3.027-3.218-1.228.709-1.853,3.082,1.636-.328-3.765h2.21l-.355,3.765,3.11-1.636.681,1.853-3.218,1.257,2.182,3-1.773,1.037-1.746-3.409Z" fill="#1a2e35"/>
      <path id="Trazado_85" data-name="Trazado 85" d="M325.555,224.119l-1.719-1.037,2.155-3.027-3.218-1.228.709-1.853,3.082,1.636-.327-3.765h2.209l-.355,3.765,3.11-1.636.681,1.853-3.218,1.257,2.182,3-1.773,1.037-1.746-3.409Z" fill="#1a2e35"/>
      <path id="Trazado_86" data-name="Trazado 86" d="M336.41,224.119l-1.719-1.037,2.155-3.027-3.218-1.228.709-1.853,3.082,1.636-.327-3.765H339.3l-.355,3.765,3.11-1.636.681,1.853-3.218,1.257,2.182,3-1.773,1.037-1.745-3.409Z" fill="#1a2e35"/>
      <path id="Trazado_87" data-name="Trazado 87" d="M347.265,224.119l-1.719-1.037,2.155-3.027-3.218-1.228.709-1.853,3.082,1.636-.328-3.765h2.21l-.355,3.765,3.11-1.636.681,1.853-3.218,1.257,2.182,3-1.773,1.037-1.746-3.409Z" fill="#1a2e35"/>
      <path id="Trazado_88" data-name="Trazado 88" d="M358.12,224.119l-1.719-1.037,2.155-3.027-3.218-1.228.709-1.853,3.082,1.636-.328-3.765h2.21l-.355,3.765,3.11-1.636.681,1.853-3.218,1.257,2.182,3-1.773,1.037-1.746-3.409Z" fill="#1a2e35"/>
      <rect id="Rectángulo_14" data-name="Rectángulo 14" width="55.803" height="54.586" transform="translate(288.046 137.018)" fill="none" stroke="#1a2e35" stroke-linecap="round" stroke-linejoin="round" stroke-width="1"/>
      <path id="Trazado_89" data-name="Trazado 89" d="M298.287,137.04V124.477a17.66,17.66,0,0,1,35.319,0V137.04h8.122V124.477a25.781,25.781,0,0,0-51.562,0V137.04Z" fill="none" stroke="#1a2e35" stroke-miterlimit="10" stroke-width="1"/>
      <path id="Trazado_90" data-name="Trazado 90" d="M322.367,158.183a6.42,6.42,0,1,0-8.754,5.966v12.709h4.669V164.149A6.409,6.409,0,0,0,322.367,158.183Z" fill="none" stroke="#1a2e35" stroke-linecap="round" stroke-linejoin="round" stroke-width="1"/>
      <path id="Trazado_91" data-name="Trazado 91" d="M164.4,20.016v295.56a14.688,14.688,0,0,1-14.689,14.688H22.007A14.689,14.689,0,0,1,7.318,315.576V20.008A14.681,14.681,0,0,1,22,5.327H76.815l.046.168c1.366,4.916,4.512,8.115,8,8.115h2c3.489,0,6.634-3.2,8-8.115l.054-.168h54.8A14.689,14.689,0,0,1,164.4,20.016" fill="#fff"/>
      <path id="Trazado_92" data-name="Trazado 92" d="M164.4,20.016v295.56a14.688,14.688,0,0,1-14.689,14.688H22.007A14.689,14.689,0,0,1,7.318,315.576V20.008A14.681,14.681,0,0,1,22,5.327H76.815l.046.168c1.366,4.916,4.512,8.115,8,8.115h2c3.489,0,6.634-3.2,8-8.115l.054-.168h54.8A14.689,14.689,0,0,1,164.4,20.016Z" fill="none" stroke="#1a2e35" stroke-miterlimit="10" stroke-width="1"/>
      <path id="Trazado_93" data-name="Trazado 93" d="M87.2,64.938,63.236,82.37h47.922Z" fill="#de0209"/>
      <rect id="Rectángulo_15" data-name="Rectángulo 15" width="48.88" height="3.43" transform="translate(62.757 84.256)" fill="#de0209"/>
      <path id="Trazado_94" data-name="Trazado 94" d="M111.637,114.27H109.85V89.687h-5.717V114.27H96.7V89.687H90.984V114.27H83.552V89.687H77.835V114.27H70.4V89.687H64.686V114.27H62.757v3.43h48.88Z" fill="#de0209"/>
      <rect id="Rectángulo_16" data-name="Rectángulo 16" width="54.668" height="4.827" transform="translate(59.863 119.563)" fill="#de0209"/>
      <rect id="Rectángulo_17" data-name="Rectángulo 17" width="99.012" height="16.792" transform="translate(36.673 163.843)" fill="#fff"/>
      <rect id="Rectángulo_18" data-name="Rectángulo 18" width="99.012" height="16.792" transform="translate(36.673 163.843)" fill="none" stroke="#1a2e35" stroke-linecap="round" stroke-linejoin="round" stroke-width="1"/>
      <rect id="Rectángulo_19" data-name="Rectángulo 19" width="99.012" height="16.791" transform="translate(36.673 195.111)" fill="#fff"/>
      <rect id="Rectángulo_20" data-name="Rectángulo 20" width="99.012" height="16.791" transform="translate(36.673 195.111)" fill="none" stroke="#1a2e35" stroke-linecap="round" stroke-linejoin="round" stroke-width="1"/>
      <path id="Trazado_95" data-name="Trazado 95" d="M109.3,246.136H65.1a4.843,4.843,0,0,1-4.843-4.843v-7.106a4.842,4.842,0,0,1,4.843-4.842h44.2a4.842,4.842,0,0,1,4.843,4.842v7.106a4.843,4.843,0,0,1-4.843,4.843" fill="#de0209"/>
      <path id="Trazado_96" data-name="Trazado 96" d="M164.4,33.768V20.016A14.689,14.689,0,0,0,149.715,5.327h-54.8l-.054.168c-1.366,4.916-4.511,8.115-8,8.115h-2c-3.488,0-6.633-3.2-8-8.115l-.046-.168H22A14.681,14.681,0,0,0,7.318,20.008v13.76Z" fill="#dbdbdb"/>
      <path id="Trazado_97" data-name="Trazado 97" d="M164.4,33.768V20.016A14.689,14.689,0,0,0,149.715,5.327h-54.8l-.054.168c-1.366,4.916-4.511,8.115-8,8.115h-2c-3.488,0-6.633-3.2-8-8.115l-.046-.168H22A14.681,14.681,0,0,0,7.318,20.008v13.76Z" fill="none" stroke="#1a2e35" stroke-linecap="round" stroke-linejoin="round" stroke-width="1"/>
      <path id="Trazado_98" data-name="Trazado 98" d="M7.318,313.264v2.312a14.688,14.688,0,0,0,14.689,14.688H149.715A14.689,14.689,0,0,0,164.4,315.576v-2.312Z" fill="#dbdbdb"/>
      <path id="Trazado_99" data-name="Trazado 99" d="M7.318,313.264v2.312a14.688,14.688,0,0,0,14.689,14.688H149.715A14.689,14.689,0,0,0,164.4,315.576v-2.312Z" fill="none" stroke="#1a2e35" stroke-linecap="round" stroke-linejoin="round" stroke-width="1"/>
      <path id="Trazado_100" data-name="Trazado 100" d="M174.393,90.608V61.088h-2.67V23.3A23.3,23.3,0,0,0,148.427,0H23.3A23.3,23.3,0,0,0,0,23.3V323.607a23.3,23.3,0,0,0,23.3,23.3H148.427a23.3,23.3,0,0,0,23.3-23.3V115.767h2.67V98.323h-2.67V90.608ZM164.4,306.966a23.3,23.3,0,0,1-23.3,23.3H30.616a23.3,23.3,0,0,1-23.3-23.3V28.617a23.3,23.3,0,0,1,23.3-23.29h46.2l.046.168c1.366,4.916,4.512,8.114,8,8.114h2c3.489,0,6.634-3.2,8-8.114l.054-.168h46.191a23.3,23.3,0,0,1,23.3,23.29Z" fill="#02275a"/>
      <path id="Trazado_101" data-name="Trazado 101" d="M146.558,3.209H25.165A22.467,22.467,0,0,0,2.7,25.676V321.227a22.467,22.467,0,0,0,22.468,22.467H146.559a22.467,22.467,0,0,0,22.467-22.467V25.676A22.467,22.467,0,0,0,146.558,3.209M164.4,307.8a22.469,22.469,0,0,1-22.469,22.469H29.788A22.47,22.47,0,0,1,7.318,307.8V27.789A22.463,22.463,0,0,1,29.78,5.327H76.815l.046.168c1.366,4.916,4.512,8.115,8,8.115h2c3.489,0,6.634-3.2,8-8.115l.054-.168h47.02A22.47,22.47,0,0,1,164.4,27.8Z" fill="#02275a"/>
      <path id="Trazado_102" data-name="Trazado 102" d="M87.569,6.441a2.187,2.187,0,1,0-2.187,2.187,2.187,2.187,0,0,0,2.187-2.187" fill="#fff"/>
      <path id="Trazado_103" data-name="Trazado 103" d="M21.281,14.822c0,2.213-2.486,3.01-2.5,4.7v.115H21.2v.745H17.979v-.63c0-2.369,2.484-2.83,2.484-4.9,0-.755-.251-1.154-.859-1.154s-.861.43-.861,1.08v.65h-.764v-.6c0-1.122.512-1.867,1.644-1.867s1.658.734,1.658,1.856" fill="#1a2e35"/>
      <path id="Trazado_104" data-name="Trazado 104" d="M25.3,14.811V15a1.458,1.458,0,0,1-.891,1.511,1.459,1.459,0,0,1,.891,1.52V18.6c0,1.122-.524,1.856-1.657,1.856S22,19.718,22,18.6v-.5h.765v.556c0,.661.272,1.059.86,1.059s.86-.388.86-1.133v-.566c0-.724-.305-1.069-.924-1.09h-.44v-.735H23.6a.881.881,0,0,0,.882-1.006v-.336c0-.755-.263-1.142-.86-1.142s-.86.408-.86,1.069v.377H22v-.335c0-1.122.524-1.846,1.645-1.846s1.657.724,1.657,1.846" fill="#1a2e35"/>
      <path id="Trazado_105" data-name="Trazado 105" d="M26.883,16.384H26.1V15.367h.787Zm0,3.995H26.1V19.362h.787Z" fill="#1a2e35"/>
      <path id="Trazado_106" data-name="Trazado 106" d="M28.539,16.028a1.181,1.181,0,0,1,1.091-.608c.944,0,1.362.692,1.362,1.74V18.6c0,1.122-.534,1.856-1.655,1.856S27.69,19.719,27.69,18.6V18.1h.765v.545c0,.661.273,1.059.86,1.059s.86-.4.86-1.059V17.223c0-.66-.272-1.059-.86-1.059a.791.791,0,0,0-.828.786v.168h-.765l.2-4.079h2.894v.734H28.654Z" fill="#1a2e35"/>
      <path id="Trazado_107" data-name="Trazado 107" d="M35.073,14.8v.137h-.765v-.189c0-.661-.273-1.048-.87-1.048-.619,0-.892.4-.892,1.185v1.646a1.183,1.183,0,0,1,1.185-.787c.944,0,1.364.682,1.364,1.741V18.6c0,1.122-.557,1.856-1.679,1.856s-1.688-.734-1.688-1.856V14.853c0-1.164.525-1.888,1.688-1.888,1.133,0,1.657.714,1.657,1.835m-2.527,2.748v1.1c0,.661.273,1.059.87,1.059s.871-.4.871-1.059v-1.1c0-.661-.283-1.059-.871-1.059s-.87.4-.87,1.059" fill="#1a2e35"/>
      <rect id="Rectángulo_21" data-name="Rectángulo 21" width="2.073" height="5.181" transform="translate(113.133 15.124)" fill="#1a2e35"/>
      <rect id="Rectángulo_22" data-name="Rectángulo 22" width="2.073" height="6.219" transform="translate(115.897 14.086)" fill="#1a2e35"/>
      <rect id="Rectángulo_23" data-name="Rectángulo 23" width="2.073" height="6.956" transform="translate(118.66 13.349)" fill="#1a2e35"/>
      <rect id="Rectángulo_24" data-name="Rectángulo 24" width="2.072" height="8.238" transform="translate(121.424 12.067)" fill="#1a2e35"/>
      <path id="Trazado_108" data-name="Trazado 108" d="M149.144,20.163H136.709v-7.6h12.435ZM137.4,19.472h11.054V13.254H137.4Z" fill="#1a2e35"/>
      <rect id="Rectángulo_25" data-name="Rectángulo 25" width="6.563" height="4.714" transform="translate(138.436 14.006)" fill="#1a2e35"/>
      <rect id="Rectángulo_26" data-name="Rectángulo 26" width="1.564" height="1.79" transform="translate(148.712 15.468)" fill="#1a2e35"/>
      <path id="Trazado_109" data-name="Trazado 109" d="M132.149,18.509a.469.469,0,0,1-.238-.065c-2.53-1.5-4.2-.108-4.273-.049a.464.464,0,0,1-.611-.7c.09-.079,2.229-1.911,5.36-.05a.464.464,0,0,1-.238.863" fill="#1a2e35"/>
      <path id="Trazado_110" data-name="Trazado 110" d="M133.086,16.948a.469.469,0,0,1-.238-.065c-3.659-2.176-6.118-.071-6.143-.051a.464.464,0,0,1-.613-.7c.03-.027,3-2.568,7.232-.051a.465.465,0,0,1-.238.864" fill="#1a2e35"/>
      <path id="Trazado_111" data-name="Trazado 111" d="M133.936,15.141a.47.47,0,0,1-.239-.065c-4.634-2.756-7.715-.162-7.843-.049a.465.465,0,0,1-.612-.7c.035-.032,3.7-3.163,8.931-.05a.464.464,0,0,1-.237.863" fill="#1a2e35"/>
      <path id="Trazado_112" data-name="Trazado 112" d="M130.751,19.288a1.165,1.165,0,1,1-1.165-1.165,1.166,1.166,0,0,1,1.165,1.165" fill="#1a2e35"/>
      <path id="Trazado_113" data-name="Trazado 113" d="M70.2,176.517a2.045,2.045,0,0,1-1.238-.321,1.6,1.6,0,0,1-.587-.9,5.293,5.293,0,0,1-.156-1.362v-4.923h.99v4.969a5.4,5.4,0,0,0,.065.871,1.164,1.164,0,0,0,.279.624,1.034,1.034,0,0,0,1.3,0,1.184,1.184,0,0,0,.275-.624,5.409,5.409,0,0,0,.064-.871v-4.969h.981v4.923a5.293,5.293,0,0,1-.156,1.362,1.611,1.611,0,0,1-.582.9,2.023,2.023,0,0,1-1.233.321" fill="#ccc"/>
      <path id="Trazado_114" data-name="Trazado 114" d="M75.017,176.517a1.935,1.935,0,0,1-1.068-.275,1.733,1.733,0,0,1-.646-.761,3.139,3.139,0,0,1-.257-1.128l.917-.247a4.044,4.044,0,0,0,.124.761,1.358,1.358,0,0,0,.316.6.8.8,0,0,0,.614.234.788.788,0,0,0,.61-.225.923.923,0,0,0,.206-.646,1.325,1.325,0,0,0-.229-.812,4.4,4.4,0,0,0-.578-.619l-1.247-1.1a2.1,2.1,0,0,1-.54-.7,2.241,2.241,0,0,1-.175-.94,1.671,1.671,0,0,1,.468-1.265,1.76,1.76,0,0,1,1.274-.45,2.4,2.4,0,0,1,.775.115,1.365,1.365,0,0,1,.559.353,1.734,1.734,0,0,1,.358.6,3.39,3.39,0,0,1,.179.848l-.881.238a3.636,3.636,0,0,0-.11-.674,1.008,1.008,0,0,0-.288-.495.852.852,0,0,0-.592-.188.834.834,0,0,0-.6.206.806.806,0,0,0-.216.61,1.2,1.2,0,0,0,.115.56,1.645,1.645,0,0,0,.371.449l1.256,1.1a3.95,3.95,0,0,1,.743.876,2.211,2.211,0,0,1,.321,1.2,1.885,1.885,0,0,1-.229.95,1.552,1.552,0,0,1-.628.609,1.941,1.941,0,0,1-.922.211" fill="#ccc"/>
      <path id="Trazado_115" data-name="Trazado 115" d="M77.6,176.435v-7.427h2.879v.77H78.638v2.458h1.5v.733h-1.5v2.723H80.5v.743Z" fill="#ccc"/>
      <path id="Trazado_116" data-name="Trazado 116" d="M81.334,176.435v-7.427h1.5a3.3,3.3,0,0,1,1.228.2,1.377,1.377,0,0,1,.72.633,2.408,2.408,0,0,1,.234,1.141,3.132,3.132,0,0,1-.092.785,1.51,1.51,0,0,1-.293.595,1.144,1.144,0,0,1-.532.353l1.054,3.723h-1l-.972-3.484H82.37v3.484Zm1.036-4.227h.394a1.966,1.966,0,0,0,.716-.11.739.739,0,0,0,.4-.376,1.738,1.738,0,0,0,.128-.743,1.475,1.475,0,0,0-.238-.939,1.2,1.2,0,0,0-.944-.289H82.37Z" fill="#ccc"/>
      <path id="Trazado_117" data-name="Trazado 117" d="M86.092,176.435v-7.427H86.8l2.109,4.933v-4.933h.862v7.427h-.66l-2.136-5.071v5.071Z" fill="#ccc"/>
      <path id="Trazado_118" data-name="Trazado 118" d="M90.53,176.435l1.577-7.427h1l1.586,7.427h-.981l-.339-1.871H91.859l-.357,1.871ZM92,173.822h1.238l-.624-3.347Z" fill="#ccc"/>
      <path id="Trazado_119" data-name="Trazado 119" d="M95.426,176.435l.138-7.427h1.017l1.311,6.024,1.321-6.024h1.008l.138,7.427h-.834l-.083-5.391-1.256,5.391H97.6l-1.247-5.391-.082,5.391Z" fill="#ccc"/>
      <path id="Trazado_120" data-name="Trazado 120" d="M101.5,176.435v-7.427h2.879v.77h-1.843v2.458h1.5v.733h-1.5v2.723h1.861v.743Z" fill="#ccc"/>
      <path id="Trazado_121" data-name="Trazado 121" d="M67.567,207.16v-7.427H69.41a2.04,2.04,0,0,1,1.068.243,1.409,1.409,0,0,1,.582.7,2.993,2.993,0,0,1,.184,1.109,2.329,2.329,0,0,1-.207,1.018,1.493,1.493,0,0,1-.609.665,1.985,1.985,0,0,1-1.009.233H68.6v3.457Zm1.036-4.2h.477a1.993,1.993,0,0,0,.706-.1.643.643,0,0,0,.367-.353,1.837,1.837,0,0,0,.11-.711,3.254,3.254,0,0,0-.078-.815.573.573,0,0,0-.326-.4,2.015,2.015,0,0,0-.77-.11H68.6Z" fill="#ccc"/>
      <path id="Trazado_122" data-name="Trazado 122" d="M71.216,207.16l1.577-7.427h1l1.587,7.427H74.4l-.339-1.871H72.545l-.357,1.871Zm1.467-2.613h1.238L73.3,201.2Z" fill="#ccc"/>
      <path id="Trazado_123" data-name="Trazado 123" d="M77.882,207.242a1.935,1.935,0,0,1-1.068-.275,1.727,1.727,0,0,1-.646-.761,3.139,3.139,0,0,1-.257-1.128l.917-.247a4.016,4.016,0,0,0,.124.761,1.358,1.358,0,0,0,.316.6.8.8,0,0,0,.614.234.791.791,0,0,0,.61-.224.927.927,0,0,0,.206-.647,1.32,1.32,0,0,0-.229-.811,4.292,4.292,0,0,0-.578-.619l-1.246-1.1a2.089,2.089,0,0,1-.541-.7,2.238,2.238,0,0,1-.175-.94,1.671,1.671,0,0,1,.468-1.265,1.76,1.76,0,0,1,1.274-.45,2.4,2.4,0,0,1,.775.115,1.365,1.365,0,0,1,.559.353,1.734,1.734,0,0,1,.358.6,3.4,3.4,0,0,1,.179.848l-.881.238a3.544,3.544,0,0,0-.11-.673,1.007,1.007,0,0,0-.288-.5.856.856,0,0,0-.592-.187.83.83,0,0,0-.6.206.8.8,0,0,0-.216.609,1.2,1.2,0,0,0,.115.56,1.645,1.645,0,0,0,.371.449l1.256,1.1a3.923,3.923,0,0,1,.743.876,2.214,2.214,0,0,1,.321,1.206,1.883,1.883,0,0,1-.229.949,1.549,1.549,0,0,1-.628.61,1.95,1.95,0,0,1-.922.21" fill="#ccc"/>
      <path id="Trazado_124" data-name="Trazado 124" d="M82.219,207.242a1.935,1.935,0,0,1-1.068-.275,1.727,1.727,0,0,1-.646-.761,3.139,3.139,0,0,1-.257-1.128l.917-.247a4.016,4.016,0,0,0,.124.761,1.358,1.358,0,0,0,.316.6.8.8,0,0,0,.614.234.791.791,0,0,0,.61-.224.927.927,0,0,0,.206-.647,1.32,1.32,0,0,0-.229-.811,4.292,4.292,0,0,0-.578-.619l-1.246-1.1a2.089,2.089,0,0,1-.541-.7,2.238,2.238,0,0,1-.175-.94,1.671,1.671,0,0,1,.468-1.265,1.76,1.76,0,0,1,1.274-.45,2.4,2.4,0,0,1,.775.115,1.365,1.365,0,0,1,.559.353,1.734,1.734,0,0,1,.358.6,3.4,3.4,0,0,1,.179.848l-.881.238a3.543,3.543,0,0,0-.11-.673,1.007,1.007,0,0,0-.288-.5.856.856,0,0,0-.592-.187.83.83,0,0,0-.6.206.8.8,0,0,0-.216.609,1.2,1.2,0,0,0,.115.56,1.645,1.645,0,0,0,.371.449l1.256,1.1a3.923,3.923,0,0,1,.743.876A2.214,2.214,0,0,1,84,205.473a1.883,1.883,0,0,1-.229.949,1.549,1.549,0,0,1-.628.61,1.95,1.95,0,0,1-.922.21" fill="#ccc"/>
      <path id="Trazado_125" data-name="Trazado 125" d="M85.767,207.16l-1.21-7.427h.862l.8,5.336,1-5.309h.733l1.009,5.337.779-5.364h.843l-1.191,7.427h-.752l-1.036-5.5-1.046,5.5Z" fill="#ccc"/>
      <path id="Trazado_126" data-name="Trazado 126" d="M93.313,207.243a2.165,2.165,0,0,1-1.2-.294,1.6,1.6,0,0,1-.642-.838,3.858,3.858,0,0,1-.193-1.279v-2.816a3.616,3.616,0,0,1,.2-1.26,1.572,1.572,0,0,1,.642-.807,2.228,2.228,0,0,1,1.2-.28,2.183,2.183,0,0,1,1.192.284,1.606,1.606,0,0,1,.637.808,3.548,3.548,0,0,1,.2,1.255v2.825a3.681,3.681,0,0,1-.2,1.265,1.671,1.671,0,0,1-.637.839,2.105,2.105,0,0,1-1.192.3m0-.816a.976.976,0,0,0,.623-.17.843.843,0,0,0,.285-.477,3.172,3.172,0,0,0,.073-.719v-3.255a3.061,3.061,0,0,0-.073-.711.79.79,0,0,0-.285-.458,1.016,1.016,0,0,0-.623-.161,1.039,1.039,0,0,0-.628.161.775.775,0,0,0-.289.458,3,3,0,0,0-.074.711v3.255a3.111,3.111,0,0,0,.074.719.827.827,0,0,0,.289.477,1,1,0,0,0,.628.17" fill="#ccc"/>
      <path id="Trazado_127" data-name="Trazado 127" d="M96.357,207.16v-7.427h1.495a3.3,3.3,0,0,1,1.228.2,1.377,1.377,0,0,1,.72.633,2.411,2.411,0,0,1,.234,1.141,3.118,3.118,0,0,1-.092.784,1.514,1.514,0,0,1-.293.6,1.144,1.144,0,0,1-.532.353l1.054,3.723h-1l-.972-3.485h-.807v3.485Zm1.036-4.227h.394a1.965,1.965,0,0,0,.716-.11.742.742,0,0,0,.4-.376,1.738,1.738,0,0,0,.128-.743,1.475,1.475,0,0,0-.238-.939,1.2,1.2,0,0,0-.944-.289h-.459Z" fill="#ccc"/>
      <path id="Trazado_128" data-name="Trazado 128" d="M101.115,207.16v-7.427h1.614a2.834,2.834,0,0,1,1.306.252,1.454,1.454,0,0,1,.688.757,3.323,3.323,0,0,1,.206,1.256v2.732a3.743,3.743,0,0,1-.206,1.33,1.585,1.585,0,0,1-.669.82,2.387,2.387,0,0,1-1.243.28Zm1.036-.743h.587a1.184,1.184,0,0,0,.807-.219,1.007,1.007,0,0,0,.289-.643,8.879,8.879,0,0,0,.05-1.018v-2.41a4.822,4.822,0,0,0-.073-.936.786.786,0,0,0-.321-.523,1.436,1.436,0,0,0-.779-.164h-.56Z" fill="#ccc"/>
      <path id="Trazado_129" data-name="Trazado 129" d="M215.275,420.438a24.592,24.592,0,0,0-.7,7.113c0,2.233,1.2,7.9,1.481,10.3s17.305-2.621,17.305-2.621.42-4.209.42-6.3-2.138-7.271-2.312-8.49-16.193,0-16.193,0" fill="#fadad4"/>
    </g>
  </g>
  <g id="Grupo_45" data-name="Grupo 45">
    <g id="Grupo_44" data-name="Grupo 44" clip-path="url(#clip-path-4)">
      <rect id="Rectángulo_28" data-name="Rectángulo 28" width="52.266" height="52.075" transform="translate(195.583 441.007) rotate(-39.056)" fill="url(#linear-gradient-2)"/>
    </g>
  </g>
  <g id="Grupo_47" data-name="Grupo 47">
    <g id="Grupo_46" data-name="Grupo 46" clip-path="url(#clip-path)">
      <path id="Trazado_131" data-name="Trazado 131" d="M155.352,205.485s.673,102,1.01,103.347-2.02,16.158-1.347,31.307,7.339,83.692,7.339,83.692,18.515.337,18.515-1.683,4.443-105.573,4.443-105.573l10.1-60.258,3.7,5.723,4.713,54.535,3.7,23.9s-.336,22.217,1.347,29.623,4.934,52.894,4.934,52.894,19.649,1.491,19.649-.865,6.724-64.484,4.7-72.563-1.347-40.733-1.347-40.733L234.8,221.644l-1.01-9.09Z" fill="#02275a"/>
      <path id="Trazado_132" data-name="Trazado 132" d="M187.41,71.251,180.953,73.7l-5.343,60.113-23.154,70.576A80.515,80.515,0,0,0,169.6,219.751a88.389,88.389,0,0,0,21.151,10.464l4.675-10.909,1.336,11.355s9.573-.668,16.03-1.559,20.483-4.007,20.483-4.007l-8.683-105.086L228.6,73.923Z" fill="#fff"/>
      <path id="Trazado_133" data-name="Trazado 133" d="M187.41,71.251,180.953,73.7l-5.343,60.113-23.154,70.576A80.515,80.515,0,0,0,169.6,219.751a88.389,88.389,0,0,0,21.151,10.464l4.675-10.909,1.336,11.355s9.573-.668,16.03-1.559,20.483-4.007,20.483-4.007l-8.683-105.086L228.6,73.923Z" fill="none" stroke="#1a2e35" stroke-miterlimit="10" stroke-width="1"/>
      <line id="Línea_5" data-name="Línea 5" x1="1.558" y2="21.596" transform="translate(200.991 97.3)" fill="none" stroke="#1a2e35" stroke-miterlimit="10" stroke-width="1"/>
      <line id="Línea_6" data-name="Línea 6" x1="0.181" y2="5.675" transform="translate(195.87 202.722)" fill="none" stroke="#1a2e35" stroke-miterlimit="10" stroke-width="1"/>
      <line id="Línea_7" data-name="Línea 7" x1="1.457" y2="45.727" transform="translate(196.194 152.515)" fill="none" stroke="#1a2e35" stroke-miterlimit="10" stroke-width="1"/>
      <line id="Línea_8" data-name="Línea 8" x2="18.257" y2="16.698" transform="translate(166.704 182.571)" fill="none" stroke="#1a2e35" stroke-miterlimit="10" stroke-width="1"/>
      <line id="Línea_9" data-name="Línea 9" x2="14.694" y2="6.011" transform="translate(168.485 180.122)" fill="none" stroke="#1a2e35" stroke-miterlimit="10" stroke-width="1"/>
      <path id="Trazado_134" data-name="Trazado 134" d="M189.229,66.909s-3.131.553-3.867,1.657-1.473,5.157-1.473,5.709-.553,21.914-.553,21.914l13.811-8.1,10.681-.92,12.154,11.6s5.709-21.361,4.42-25.965-6.63-7.55-7.55-7.919-28.36.553-27.623,2.026" fill="#fff"/>
      <path id="Trazado_135" data-name="Trazado 135" d="M189.229,66.909s-3.131.553-3.867,1.657-1.473,5.157-1.473,5.709-.553,21.914-.553,21.914l13.811-8.1,10.681-.92,12.154,11.6s5.709-21.361,4.42-25.965-6.63-7.55-7.55-7.919S188.492,65.436,189.229,66.909Z" fill="none" stroke="#1a2e35" stroke-miterlimit="10" stroke-width="1"/>
      <path id="Trazado_136" data-name="Trazado 136" d="M188.124,61.569s-1.841,12.891-.184,15.285,13.995,17.678,15.284,16.757S214.273,80.9,215.562,79.247s2.947-7,2.947-7V63.042Z" fill="#fadad4"/>
      <path id="Trazado_137" data-name="Trazado 137" d="M188.124,61.569s-1.841,12.891-.184,15.285,13.995,17.678,15.284,16.757S214.273,80.9,215.562,79.247s2.947-7,2.947-7V63.042Z" fill="none" stroke="#1a2e35" stroke-miterlimit="10" stroke-width="1"/>
      <path id="Trazado_138" data-name="Trazado 138" d="M200.2,77.739l-12.222-2.191a21.072,21.072,0,0,1-.211-2.957c-.084-2.4.563-9.15.563-9.15Z" fill="#efc1bb"/>
      <path id="Trazado_139" data-name="Trazado 139" d="M226.993,20.575s-.051.529-.146,1.465c-.68,6.765-4.705,38.655-6.6,42.412-2.152,4.277-11.484,12.238-13.229,13.406s-3.582,1.036-6.823-.119-14.523-16.361-14.9-18.788-.38-33.444-.511-36.776,1.325-8.213,6.8-12.438,16.072-5.313,23.183-1.482c0,0,11.323,4.317,12.228,12.32" fill="#fadad4"/>
      <path id="Trazado_140" data-name="Trazado 140" d="M226.993,20.575s-.051.529-.146,1.465c-.68,6.765-4.705,38.655-6.6,42.412-2.152,4.277-11.484,12.238-13.229,13.406s-3.582,1.036-6.823-.119-14.523-16.361-14.9-18.788-.38-33.444-.511-36.776,1.325-8.213,6.8-12.438,16.072-5.313,23.183-1.482C214.765,8.255,226.088,12.572,226.993,20.575Z" fill="none" stroke="#1a2e35" stroke-miterlimit="10" stroke-width="1"/>
      <path id="Trazado_141" data-name="Trazado 141" d="M184.785,22.175c-.131-3.333,1.325-8.213,6.8-12.438s16.072-5.313,23.183-1.482c0,0,11.323,4.317,12.228,12.32,0,0-.052.529-.146,1.466-.309,3.071-1.079,10.529-2,18.109l-.371.184a7.946,7.946,0,0,1-1.587-3.621c-.066-1.666-1.05-13.737-1.05-13.737s-7.806,5.9-14.288,6.179-16.793-7.846-16.793-7.846-1.142,10.811-1.785,12.058c-.519,1.006-3.055,6.678-4.013,8.827-.07-8.874-.1-18.268-.172-20.019" fill="#1a2e35"/>
      <path id="Trazado_142" data-name="Trazado 142" d="M184.785,22.175c-.131-3.333,1.325-8.213,6.8-12.438s16.072-5.313,23.183-1.482c0,0,11.323,4.317,12.228,12.32,0,0-.052.529-.146,1.466-.309,3.071-1.079,10.529-2,18.109l-.371.184a7.946,7.946,0,0,1-1.587-3.621c-.066-1.666-1.05-13.737-1.05-13.737s-7.806,5.9-14.288,6.179-16.793-7.846-16.793-7.846-1.142,10.811-1.785,12.058c-.519,1.006-3.055,6.678-4.013,8.827C184.887,33.32,184.854,23.926,184.785,22.175Z" fill="none" stroke="#1a2e35" stroke-miterlimit="10" stroke-width="1"/>
      <path id="Trazado_143" data-name="Trazado 143" d="M224.844,40.15s2.713-4.211,3.487.46-4.907,9.249-4.907,9.249Z" fill="#fadad4"/>
      <path id="Trazado_144" data-name="Trazado 144" d="M224.844,40.15s2.713-4.211,3.487.46-4.907,9.249-4.907,9.249Z" fill="none" stroke="#1a2e35" stroke-miterlimit="10" stroke-width="1"/>
      <path id="Trazado_145" data-name="Trazado 145" d="M184.93,38.247s-1.864-4.933-3.608-1.181,3.686,10.418,3.686,10.418Z" fill="#fadad4"/>
      <path id="Trazado_146" data-name="Trazado 146" d="M184.93,38.247s-1.864-4.933-3.608-1.181,3.686,10.418,3.686,10.418Z" fill="none" stroke="#1a2e35" stroke-miterlimit="10" stroke-width="1"/>
    </g>
  </g>
  <g id="Grupo_49" data-name="Grupo 49">
    <g id="Grupo_48" data-name="Grupo 48" clip-path="url(#clip-path-6)">
      <rect id="Rectángulo_30" data-name="Rectángulo 30" width="52.994" height="138.339" transform="translate(131.296 71.627)" fill="url(#linear-gradient-3)"/>
    </g>
  </g>
  <g id="Grupo_51" data-name="Grupo 51">
    <g id="Grupo_50" data-name="Grupo 50" clip-path="url(#clip-path)">
      <path id="Trazado_148" data-name="Trazado 148" d="M183.785,72.261c-.074,8.276-.515,54.026-1.3,59.95-.892,6.688-10.322,38.131-15.5,45.458-5.254,7.444-7.024,10.307-7.1,10.425l-.066.106-.038.12-4.413,14.124-.055.174.011.181.381,6.667H143.936c-1.425-2.992-8.065-17.2-9.8-25.683-2.02-9.875-2.337-18.5-.892-24.273.9-3.607,7.393-24.222,12.61-40.787,4.778-15.173,6.733-21.408,6.826-21.967a26.612,26.612,0,0,0-.191-4.113c-.225-2.9-.82-10.562-.057-11.7,1.528-1.136,17.01-5.245,31.354-8.679m-31.339,8.658h0m32.35-9.927s-31.558,7.5-33.1,9.269.221,15.007,0,16.331-17.876,56.5-19.421,62.675-1.1,15.007.883,24.717,10.152,26.482,10.152,26.482h13.462l-.442-7.724,4.414-14.124s1.766-2.869,7.062-10.372,14.786-39.282,15.669-45.9S184.8,70.992,184.8,70.992" fill="#1a2e35"/>
      <path id="Trazado_149" data-name="Trazado 149" d="M139.822,201.443s-5.516,47.7-4.867,51.1,7.138,8.923,16.223,8.111,13.628-9.571,13.628-9.571l-9.272-49.668Z" fill="#8a8a8a"/>
      <path id="Trazado_150" data-name="Trazado 150" d="M139.822,201.443s-5.516,47.7-4.867,51.1,7.138,8.923,16.223,8.111,13.628-9.571,13.628-9.571l-9.272-49.668Z" fill="none" stroke="#1a2e35" stroke-miterlimit="10" stroke-width="1"/>
      <path id="Trazado_151" data-name="Trazado 151" d="M134.955,252.546c.379,1.988,2.756,4.686,6.466,6.434-.307-1.1-.642-2.39-.981-3.914-1.119-5.038,5.515-47.027,5.515-47.027l-1.331-6.6-4.8.007s-5.516,47.7-4.867,51.1" fill="#8a8a8a"/>
      <path id="Trazado_152" data-name="Trazado 152" d="M134.955,252.546c.379,1.988,2.756,4.686,6.466,6.434-.307-1.1-.642-2.39-.981-3.914-1.119-5.038,5.515-47.027,5.515-47.027l-1.331-6.6-4.8.007S134.306,249.139,134.955,252.546Z" fill="none" stroke="#1a2e35" stroke-miterlimit="10" stroke-width="1"/>
      <path id="Trazado_153" data-name="Trazado 153" d="M139.011,159.1s12.492-.973,17.683,3.894" fill="none" stroke="#1a2e35" stroke-miterlimit="10" stroke-width="1"/>
      <path id="Trazado_154" data-name="Trazado 154" d="M144.851,155.207s6.327.324,10.383,3.569" fill="none" stroke="#1a2e35" stroke-miterlimit="10" stroke-width="1"/>
      <line id="Línea_10" data-name="Línea 10" x2="0.48" y2="5.896" transform="translate(154.592 124.815)" fill="none" stroke="#1a2e35" stroke-miterlimit="10" stroke-width="1"/>
      <line id="Línea_11" data-name="Línea 11" x2="2.039" y2="25.033" transform="translate(152.152 94.857)" fill="none" stroke="#1a2e35" stroke-miterlimit="10" stroke-width="1"/>
      <path id="Trazado_155" data-name="Trazado 155" d="M176.41,73.64S173.762,99.9,174.2,108.509s5.517,34.427,5.738,35.53" fill="none" stroke="#1a2e35" stroke-miterlimit="10" stroke-width="1"/>
      <path id="Trazado_156" data-name="Trazado 156" d="M168.024,75.185,145.955,208.039l7.724-.221L174.2,74.082Z" fill="#8a8a8a"/>
      <path id="Trazado_157" data-name="Trazado 157" d="M168.024,75.185,145.955,208.039l7.724-.221L174.2,74.082Z" fill="none" stroke="#1a2e35" stroke-miterlimit="10" stroke-width="1"/>
      <path id="Trazado_158" data-name="Trazado 158" d="M151.732,172.167s-7.6,2.925-8.19,4.095-6,9.945-5.7,11.115,6.874,7.167,6.874,7.167,5.85,5.85,7.166,5.7,3.657-.878,1.463-3.8a48.6,48.6,0,0,0-4.827-5.411Z" fill="#fadad4"/>
      <path id="Trazado_159" data-name="Trazado 159" d="M151.732,172.167s-7.6,2.925-8.19,4.095-6,9.945-5.7,11.115,6.874,7.167,6.874,7.167,5.85,5.85,7.166,5.7,3.657-.878,1.463-3.8a48.6,48.6,0,0,0-4.827-5.411Z" fill="none" stroke="#1a2e35" stroke-miterlimit="10" stroke-width="1"/>
      <line id="Línea_12" data-name="Línea 12" x1="4.534" y1="8.19" transform="translate(143.98 182.844)" fill="none" stroke="#1a2e35" stroke-miterlimit="10" stroke-width="1"/>
      <path id="Trazado_160" data-name="Trazado 160" d="M139.008,188.987s-1.609,4.973-.878,5.7,6.728,4.826,7.752,5.85,4.68,2.486,5.558,1.463.438-1.755.438-1.755-2.632-1.755-3.071-2.194-9.8-9.068-9.8-9.068" fill="#fadad4"/>
      <path id="Trazado_161" data-name="Trazado 161" d="M139.008,188.987s-1.609,4.973-.878,5.7,6.728,4.826,7.752,5.85,4.68,2.486,5.558,1.463.438-1.755.438-1.755-2.632-1.755-3.071-2.194S139.008,188.987,139.008,188.987Z" fill="none" stroke="#1a2e35" stroke-miterlimit="10" stroke-width="1"/>
      <path id="Trazado_162" data-name="Trazado 162" d="M140.324,196.884s.146,4.534,1.755,5.7a19.4,19.4,0,0,0,7.752,2.34c1.17-.146,1.608-2.925,1.608-2.925s-3.364.585-5.557-1.463a26.111,26.111,0,0,0-5.558-3.656" fill="#fadad4"/>
      <path id="Trazado_163" data-name="Trazado 163" d="M140.324,196.884s.146,4.534,1.755,5.7a19.4,19.4,0,0,0,7.752,2.34c1.17-.146,1.608-2.925,1.608-2.925s-3.364.585-5.557-1.463A26.111,26.111,0,0,0,140.324,196.884Z" fill="none" stroke="#1a2e35" stroke-miterlimit="10" stroke-width="1"/>
      <path id="Trazado_164" data-name="Trazado 164" d="M142.079,202.588a3.933,3.933,0,0,0,1.024,2.779,11.1,11.1,0,0,0,5.85,2.632c1.316,0-.293-3.071-.293-3.071Z" fill="#fadad4"/>
      <path id="Trazado_165" data-name="Trazado 165" d="M142.079,202.588a3.933,3.933,0,0,0,1.024,2.779,11.1,11.1,0,0,0,5.85,2.632c1.316,0-.293-3.071-.293-3.071Z" fill="none" stroke="#1a2e35" stroke-miterlimit="10" stroke-width="1"/>
      <path id="Trazado_166" data-name="Trazado 166" d="M158.606,176.116s4.68,5.411,6,6.289,2.048,7.02,2.194,8.336-11.261,10.677-11.261,10.677l-1.17-.146Z" fill="#fadad4"/>
      <path id="Trazado_167" data-name="Trazado 167" d="M158.606,176.116s4.68,5.411,6,6.289,2.048,7.02,2.194,8.336-11.261,10.677-11.261,10.677l-1.17-.146Z" fill="none" stroke="#1a2e35" stroke-miterlimit="10" stroke-width="1"/>
      <path id="Trazado_168" data-name="Trazado 168" d="M155.242,196.738s4.534-7.605,7.752-9.36" fill="none" stroke="#1a2e35" stroke-miterlimit="10" stroke-width="1"/>
    </g>
  </g>
  <g id="Grupo_53" data-name="Grupo 53">
    <g id="Grupo_52" data-name="Grupo 52" clip-path="url(#clip-path-8)">
      <rect id="Rectángulo_32" data-name="Rectángulo 32" width="55.974" height="165.878" transform="translate(214.178 69.748)" fill="url(#linear-gradient-4)"/>
    </g>
  </g>
  <g id="Grupo_55" data-name="Grupo 55">
    <g id="Grupo_54" data-name="Grupo 54" clip-path="url(#clip-path)">
      <path id="Trazado_170" data-name="Trazado 170" d="M224.093,70.391c5.266,1.813,29.074,10.006,31.339,10.685.517.181,2.467,2.16,5.812,20,1.346,7.179,7.2,43.666,8.322,50.636l-29.874.241-.853.007-.127.844-2,13.266-.022.139.018.141,9.065,68.594c-2.219-.613-6.843-1.931-12.77-3.849a35.411,35.411,0,0,1-13.36-8.248l-3.97-46.168c-.03-1.551-.985-51.559-.252-65.724.657-12.674,7.2-35.533,8.674-40.565m-.661-1.286s-8.261,27.282-9.011,41.8.25,65.827.25,65.827l4,46.555a35.94,35.94,0,0,0,14.017,8.761c8.51,2.753,14.268,4.255,14.268,4.255L237.7,166.22l2-13.266,31.036-.25s-7.008-43.8-8.51-51.811-4-20.024-6.508-20.775-32.287-11.013-32.287-11.013" fill="#1a2e35"/>
      <path id="Trazado_171" data-name="Trazado 171" d="M232.442,73.861s-3.5,18.021-7.509,32.038-10.262,30.286-10.262,30.286" fill="none" stroke="#1a2e35" stroke-miterlimit="10" stroke-width="1"/>
      <line id="Línea_13" data-name="Línea 13" x2="7.259" y2="34.541" transform="translate(230.94 113.658)" fill="none" stroke="#1a2e35" stroke-miterlimit="10" stroke-width="1"/>
      <path id="Trazado_172" data-name="Trazado 172" d="M254.2,82.606s-8.015,19.815-10.019,36.736" fill="none" stroke="#1a2e35" stroke-miterlimit="10" stroke-width="1"/>
      <path id="Trazado_173" data-name="Trazado 173" d="M243.409,139.1c-.286,1.806-.488,3.366-.562,4.51" fill="none" stroke="#1a2e35" stroke-miterlimit="10" stroke-width="1"/>
      <path id="Trazado_174" data-name="Trazado 174" d="M248.413,114.666s-2.857,12.3-4.489,21.4" fill="none" stroke="#1a2e35" stroke-miterlimit="10" stroke-width="1"/>
      <path id="Trazado_175" data-name="Trazado 175" d="M231.942,173.479,228.6,154.3l8.238.891s-2,15.879-4.894,18.292" fill="#fff"/>
      <path id="Trazado_176" data-name="Trazado 176" d="M231.942,173.479,228.6,154.3l8.238.891S234.84,171.066,231.942,173.479Z" fill="none" stroke="#1a2e35" stroke-miterlimit="10" stroke-width="1"/>
    </g>
  </g>
  <g id="Grupo_57" data-name="Grupo 57">
    <g id="Grupo_56" data-name="Grupo 56" clip-path="url(#clip-path-10)">
      <rect id="Rectángulo_34" data-name="Rectángulo 34" width="42.3" height="29.535" transform="translate(231.942 144.945)" fill="url(#linear-gradient-5)"/>
    </g>
  </g>
  <g id="Grupo_59" data-name="Grupo 59">
    <g id="Grupo_58" data-name="Grupo 58" clip-path="url(#clip-path)">
      <path id="Trazado_178" data-name="Trazado 178" d="M261.226,148.2l-27.783-3.254s.5,13.266-.25,20.024a66.6,66.6,0,0,1-1.252,8.51s22.026,1,29.535-.5,11.264-4.255,12.014-9.01-3.754-16.27-3.754-16.27" fill="none" stroke="#1a2e35" stroke-linecap="round" stroke-miterlimit="10" stroke-width="1"/>
      <path id="Trazado_179" data-name="Trazado 179" d="M204.273,141.154l-4.459-17.28,18.394.781,3.345,17.837Z" fill="#1a2e35"/>
      <path id="Trazado_180" data-name="Trazado 180" d="M204.273,141.154l-4.459-17.28,18.394.781,3.345,17.837Z" fill="none" stroke="#1a2e35" stroke-miterlimit="10" stroke-width="1"/>
      <path id="Trazado_181" data-name="Trazado 181" d="M233.443,144.945l-4.31-5.463s-2.564-4.46-3.121-5.575-6.912-2.787-6.912-2.787l1.226,5.909s-9.587.557-11.371.223-3.345-.669-3.456.892,0,2.229,2.007,2.452,9.253,1.561,9.253,1.561-10.257-.334-11.483-.669-4.794-1.672-5.128-.223,0,2.007.446,2.342,2.675,1.449,2.675,1.449-.78,2.229,0,3.344,5.128,3.679,5.686,3.9,3.01,3.01,4.571,4.46,3.679,1.226,5.908,1.226a42.625,42.625,0,0,0,5.909-.781c1-.111,8.361.781,8.361.781Z" fill="#fadad4"/>
      <path id="Trazado_182" data-name="Trazado 182" d="M233.443,144.945l-4.31-5.463s-2.564-4.46-3.121-5.575-6.912-2.787-6.912-2.787l1.226,5.909s-9.587.557-11.371.223-3.345-.669-3.456.892,0,2.229,2.007,2.452,9.253,1.561,9.253,1.561-10.257-.334-11.483-.669-4.794-1.672-5.128-.223,0,2.007.446,2.342,2.675,1.449,2.675,1.449-.78,2.229,0,3.344,5.128,3.679,5.686,3.9,3.01,3.01,4.571,4.46,3.679,1.226,5.908,1.226a42.625,42.625,0,0,0,5.909-.781c1-.111,8.361.781,8.361.781Z" fill="none" stroke="#1a2e35" stroke-miterlimit="10" stroke-width="1"/>
      <path id="Trazado_183" data-name="Trazado 183" d="M216.759,142.157s3.122.446,4.013.112,1.338-1.9,1-3.456" fill="none" stroke="#1a2e35" stroke-miterlimit="10" stroke-width="1"/>
      <path id="Trazado_184" data-name="Trazado 184" d="M203.27,145.056s6.577,2.341,8.584,3.233,7.693.669,8.138.669" fill="none" stroke="#1a2e35" stroke-miterlimit="10" stroke-width="1"/>
      <path id="Trazado_185" data-name="Trazado 185" d="M208.955,152.3s4.9,1.561,5.8,1.784a23.459,23.459,0,0,0,4.014,0" fill="none" stroke="#1a2e35" stroke-miterlimit="10" stroke-width="1"/>
    </g>
  </g>
</svg>
