<svg xmlns="http://www.w3.org/2000/svg" xmlns:xlink="http://www.w3.org/1999/xlink" viewBox="0 0 569.16 272.49"><defs><style>.cls-1{fill:#aeadb3;}.cls-2{fill:url(#Degradado_sin_nombre_5);}.cls-3{fill:url(#Degradado_sin_nombre_5-2);}.cls-4{fill:url(#Degradado_sin_nombre_8);}.cls-5{fill:url(#Degradado_sin_nombre_8-2);}.cls-6{fill:url(#Degradado_sin_nombre_8-3);}.cls-7{fill:url(#Degradado_sin_nombre_5-3);}.cls-8{fill:url(#Degradado_sin_nombre_5-4);}.cls-9{fill:#87868a;}.cls-10{fill:url(#Degradado_sin_nombre_5-5);}.cls-11{fill:url(#Degradado_sin_nombre_5-6);}.cls-12{fill:url(#Degradado_sin_nombre_5-7);}.cls-13{fill:url(#linear-gradient);}.cls-14{fill:url(#linear-gradient-2);}.cls-15{fill:url(#linear-gradient-3);}.cls-16{fill:url(#linear-gradient-4);}.cls-17{fill:url(#linear-gradient-5);}.cls-18{fill:url(#linear-gradient-6);}.cls-19{fill:url(#linear-gradient-7);}.cls-20{fill:#192b59;}.cls-21{fill:#f2dad4;}.cls-22{fill:#e64d4e;}.cls-23{fill:url(#linear-gradient-8);}.cls-24{fill:url(#linear-gradient-9);}.cls-25{fill:#fff;}.cls-26{fill:#0d1019;}</style><linearGradient id="Degradado_sin_nombre_5" x1="74.76" y1="91.92" x2="513.06" y2="91.92" gradientUnits="userSpaceOnUse"><stop offset="0" stop-color="#edeef0"/><stop offset="0.26" stop-color="#e1e2e4"/><stop offset="0.74" stop-color="#c2c1c6"/><stop offset="1" stop-color="#aeadb3"/></linearGradient><linearGradient id="Degradado_sin_nombre_5-2" x1="1.95" y1="143.63" x2="58.84" y2="143.63" xlink:href="#Degradado_sin_nombre_5"/><linearGradient id="Degradado_sin_nombre_8" x1="117.55" y1="172.44" x2="117.55" y2="224.78" gradientUnits="userSpaceOnUse"><stop offset="0" stop-color="#f7f7f8"/><stop offset="0.48" stop-color="#ebebed"/><stop offset="1" stop-color="#d8d9dd"/></linearGradient><linearGradient id="Degradado_sin_nombre_8-2" x1="282.62" y1="172.44" x2="282.62" y2="224.78" xlink:href="#Degradado_sin_nombre_8"/><linearGradient id="Degradado_sin_nombre_8-3" x1="451.49" y1="172.44" x2="451.49" y2="224.78" xlink:href="#Degradado_sin_nombre_8"/><linearGradient id="Degradado_sin_nombre_5-3" x1="270.31" y1="283.45" x2="183.19" y2="774.45" xlink:href="#Degradado_sin_nombre_5"/><linearGradient id="Degradado_sin_nombre_5-4" x1="517.6" y1="107.68" x2="569.16" y2="107.68" xlink:href="#Degradado_sin_nombre_5"/><linearGradient id="Degradado_sin_nombre_5-5" x1="223.64" y1="-122.15" x2="306.53" y2="-19.25" xlink:href="#Degradado_sin_nombre_5"/><linearGradient id="Degradado_sin_nombre_5-6" x1="118.99" y1="-37.85" x2="201.88" y2="65.05" xlink:href="#Degradado_sin_nombre_5"/><linearGradient id="Degradado_sin_nombre_5-7" x1="31.51" y1="32.61" x2="114.41" y2="135.52" xlink:href="#Degradado_sin_nombre_5"/><linearGradient id="linear-gradient" x1="64.37" y1="120.67" x2="159.82" y2="120.67" gradientUnits="userSpaceOnUse"><stop offset="0" stop-color="#f2c43c"/><stop offset="1" stop-color="#ffac00"/></linearGradient><linearGradient id="linear-gradient-2" x1="38.09" y1="119.53" x2="104.57" y2="119.53" xlink:href="#linear-gradient"/><linearGradient id="linear-gradient-3" x1="366.56" y1="97.86" x2="495.51" y2="97.86" xlink:href="#linear-gradient"/><linearGradient id="linear-gradient-4" x1="489.03" y1="86.91" x2="507.99" y2="110.52" xlink:href="#linear-gradient"/><linearGradient id="linear-gradient-5" x1="482.34" y1="142.53" x2="500.27" y2="164.24" gradientUnits="userSpaceOnUse"><stop offset="0" stop-color="#4e9cff"/><stop offset="0.51" stop-color="#176ad4"/></linearGradient><linearGradient id="linear-gradient-6" x1="456.53" y1="138.37" x2="513.04" y2="138.37" gradientUnits="userSpaceOnUse"><stop offset="0" stop-color="#4e9cff"/><stop offset="1" stop-color="#176ad4"/></linearGradient><linearGradient id="linear-gradient-7" x1="467.38" y1="130.63" x2="510.25" y2="149.05" gradientUnits="userSpaceOnUse"><stop offset="0" stop-color="#4e9cff"/><stop offset="0.46" stop-color="#176ad4"/></linearGradient><linearGradient id="linear-gradient-8" x1="132.09" y1="107.76" x2="287.08" y2="107.76" xlink:href="#linear-gradient-6"/><linearGradient id="linear-gradient-9" x1="257.78" y1="89.3" x2="258.11" y2="112.04" gradientUnits="userSpaceOnUse"><stop offset="0" stop-color="#510394"/><stop offset="0.14" stop-color="#4a0388"/><stop offset="0.4" stop-color="#380367"/><stop offset="0.75" stop-color="#1b0433"/><stop offset="1" stop-color="#030408"/></linearGradient></defs><title>Recurso 1</title><g id="Capa_2" data-name="Capa 2"><g id="Capa_1-2" data-name="Capa 1"><polygon class="cls-1" points="534.6 217.33 38.09 217.27 38.09 168.1 92.82 134.61 510.22 120.67 534.6 168.44 534.6 217.33"/><path class="cls-2" d="M507.58,55.07S513,52.89,513,58.58s0,24.47,0,24.47l-10.29,37.62s-272.64,8.69-271.09,8.5-156.9-10-156.9-10l2.76-57.38S77.28,54.66,88,55.07C100.43,55.54,507.58,55.07,507.58,55.07Z"/><path class="cls-3" d="M24,119.17l26.06,1L58.84,142,54,159.9l-15.89,8.2V130.53L5.24,132.86s-6-1.8-1.74-5.7S24,119.17,24,119.17Z"/><polygon class="cls-4" points="197.01 168.17 196.32 215 38.09 214.93 38.09 168.1 197.01 168.17"/><polygon class="cls-5" points="366.88 168.17 366.14 215 199.36 215 198.36 168.17 366.88 168.17"/><polygon class="cls-6" points="534.6 168.44 534.6 215 368.37 215 369.19 168.17 534.6 168.44"/><path class="cls-7" d="M534.6,120.67v96.66l-496.52-.06V130.53l-33.35.15s-3.49-.2-1.23-3.52c0,0-3.5,1-3.5,8V263s0,8.07,5,9.53l33.13-.13H569.16V120.67Z"/><polygon class="cls-8" points="543.52 94.7 569.16 120.67 534.6 120.67 517.6 94.7 543.52 94.7"/><polygon class="cls-9" points="534.6 168.17 514.4 129.17 517.6 94.7 534.6 120.67 534.6 168.17"/><polygon class="cls-10" points="369.19 168.17 369.19 127.16 514.4 129.17 534.6 168.17 369.19 168.17"/><polygon class="cls-11" points="198.36 168.17 225.99 136.03 348.95 140.14 366.88 168.17 198.36 168.17"/><polygon class="cls-12" points="197.01 168.17 220.23 139.56 80.97 134.61 53.97 159.9 38.09 168.1 197.01 168.17"/><path class="cls-13" d="M65.54,84.79s-2.63,5,0,6.41,10.77,12,13.69,19.52,14.27,27.5,13.69,35.45-2,13.48,5,12.61,44.57-9,48.64-7.86,9.1,2,9.1,2,5.92-4.32,3.72-6.78-1.51-8.36-1.63-11-9.23-13.28-11.52-18.87-13.7-26.46-13.7-26.46l-14.33-7.4-35.23,3S70.78,83.05,65.54,84.79Z"/><path class="cls-14" d="M40.78,79.26s-3.21-1.75-2.62,3.2,2.62,14.2,7.86,25.3,8.16,32.67,6.7,42.57,0,11.25,7.57,8.54,28.28-10.28,32.35-9.41,11.93-23.59,11.93-24.76S75.44,90.62,75.44,90.62l-9.9-5.83S51,83.63,40.78,79.26Z"/><path class="cls-15" d="M376.62,68.78s-3.78-3.21-6.7,4.36-3.94,24.61-3,33.4,22.85,14.13,22.85,14.13l10.78,3.16s18.45,10.74,25.34,12c41.76,7.62,60-20.45,60-20.45s-2.82-30,1.35-37.57S495.82,67,495.5,62.07s-9.45-3.78-12.76-1.74-8.82,6.41-42,11.36S387.11,74,376.62,68.78Z"/><path class="cls-16" d="M540,99.94s8.16,3.88,1.46,6.6-26.83,20-34.46,28-23.22-1.91-23.22-1.91-6.67-36.52,1.33-44.38S514.4,71.4,514.4,71.4s3.2-.88,3.2,3.49S519.64,93.54,540,99.94Z"/><path class="cls-17" d="M494,129.17,489.36,144a39,39,0,0,0-4.67,1.09l-12.82,27.35s9.32,2.77,12.43,2.37l7.77,0a29.17,29.17,0,0,0,3.69-6.4c1.35-3.46,2.91-15,4.85-18.31s7.64-18.83,7.64-18.83Z"/><path class="cls-18" d="M496.34,104.9c-2.72,2.83-6,6.91-9.21,10.63l.08-.15c-4.47,2.33-20.83,14.4-20.83,14.4l-9.85,13.37s1.22,13.07,4.25,13.11l-2.12,4,1.56,8.21s3.11,13,14,1.89,16.11-19.62,19.61-22.53,19.42-16.7,19.22-32.43S501,100,496.34,104.9Z"/><path class="cls-19" d="M465.08,163.93s-4.86,9.9,5.05,6.21,10.48-12,15.73-17.09,22.33-18.44,23.88-28.73,1.36-19.1-5.05-17.61-16.12,19.35-17.48,22.65S482,142.57,478.09,147,466,161.52,465.08,163.93Z"/><path class="cls-20" d="M220.31,157.65s6.3,4.14,20.29,4.33,43.69-.06,55.15-2.16,21.35-1.35,37.67,0,46.21,5.25,65.05,6.8S461.2,171,461.2,171a31.44,31.44,0,0,0-6-8.21c-2-1.79-70.87-19.22-70.87-19.22s-17.87-6.8-24.09-12.23-19-4-21.74-4.15-48.28-.74-54.73-3.84-39.26-6-46.64-2.31S219.24,147.68,220.31,157.65Z"/><path class="cls-20" d="M281.16,111.5s25.65,2.13,44.3,0,44.27-8.55,52.82-1.75c0,0,22.72,14.57,37.86,15.34s52.24-2.53,51.46,0-6.41,24.66-5.44,32.43-.73,12.42-4.08,10.49c-4.5-2.61-2.23-2-6.79-1.75L282,135.58l-7.19-18.45Z"/><path class="cls-21" d="M202.44,28.58s.29,6.12-.88,7.43a8.83,8.83,0,0,0-1.74,5.68c0,2.18-1.31,7.13-3.35,9.32s-4.37,7.86-5.39,11.21-3.64,5.54-12.23,3.06c0,0-5.83.58-15.3-4.37,0,0-1.31-11.8,0-17.33,0,0-8.59-3.93-5-15,0,0,1.89-4.22,3.79-1a77.07,77.07,0,0,1,4.22,9.61A11,11,0,0,1,171,29.6c4.22-3.35,6.26-11.94,6.12-12.67s7.28,3.2,9.46,1.75S197.19,19.4,202.44,28.58Z"/><path class="cls-22" d="M206.52,16.83c-2.33-4.71-6.41-12-19.23-15.78s-21.12,3.79-21.85,5-1,2.48-2.91,2.34-3.83,1.6-4.83,4.22S151.35,40.08,163,51.88a37.41,37.41,0,0,1,.57-8.3s-8.59-3.93-5-15c0,0,1.89-4.22,3.79-1a77.07,77.07,0,0,1,4.22,9.61A11,11,0,0,1,171,29.6c4.22-3.35,6.26-11.94,6.12-12.67s7.28,3.2,9.46,1.75,10.63.72,15.88,9.9c0,0,.09,2,0,3.92h.07S208.85,21.55,206.52,16.83Z"/><path class="cls-23" d="M278.46,111.88s-36.55-8.15-42.23-18.78c0,0,9.75-16.75,15.58-11.22,0,0,6-3.49,2.33-4.95S235.21,63.68,233.46,61.2s-10.63-7.42-21-7-16,.85-17.77-.66a47.8,47.8,0,0,0-3.64,8.67c-1,3.35-3.64,5.54-12.23,3.06,0,0-5.83.58-15.3-4.37,0,0-.28-2.55-.45-5.83,0,0-3.92.3-4.79,3.06s-.88,5.1-3.64,6-22.43,7.43-22.58,17.48,2.19,19.31,10,32.61c0,0,20.83-6.54,24.18-2.46s24.61,40.49,41.51,50.24c0,0,40.63-13.39,42.82-18.64,0,0-2.92-11.65-6.12-13.83l18.2-7.72s5.68-3.5,17.77,3.2c0,0,6-1.75,6.56-7S278.46,111.88,278.46,111.88Z"/><path class="cls-21" d="M275.7,100.67c-2-1.46-6.85-3.5-9.62-7s-14.27-11.8-14.27-11.8C246,76.35,236.23,93.1,236.23,93.1c2.67,5,12.15,9.44,21.45,12.75-1.54.8-3.32,1.91-3.32,1.91a6.81,6.81,0,0,0,2.4,0,33.65,33.65,0,0,1,3.19-1.12c1.47.5,2.92,1,4.33,1.4.3,1.18-1,2.5-2.35,2.61-1.89.14-4.66,3.2-4.66,3.2a40.29,40.29,0,0,1,4.59-2.11c2.33-.87,3.42.58,3.42,1.89s-3.93,4.08-3.93,4.08c2-1.24,3.2.36,2.69,1.9s-6.26,4.28-8.28,5.14c-.33.14-.88.32-1.54.54l.07.08s.75-.58,3.71-.44,5.24-3.37,5.25-3.38h0c8.07-10.35,15.47-9.68,17.4-9.28a3.65,3.65,0,0,1,.49.12C281.49,108.23,277.74,102.13,275.7,100.67Z"/><path class="cls-24" d="M249.12,104.82l2.61-17a2.26,2.26,0,0,1,2.07-1.09l11.48-.68s1.9,0,1.24,3.4l-3.13,14.05-3.23.45Z"/><path class="cls-25" d="M253.8,86.74l11.48-.68s1.36,0,1.37,2.09h0c.5-3-1.88-3.2-1.88-3.2l-11.14.58C251.15,85.38,251,87,251,87l-3.08,17.78h1.24l2.61-17A2.26,2.26,0,0,1,253.8,86.74Z"/><path class="cls-21" d="M142.14,114.2s10.19,27.48,19.81,39.48c3,3.8,3.49,3.5,11.36,3.2s26.82-4.22,36.27-11.06,18.34-14,22.86-13.25,9.61-1,10.78-2.77,10.52-4.2,12.54-5.05,7.78-3.62,8.28-5.14-.65-3.14-2.69-1.9c0,0,3.93-2.76,3.93-4.08s-1.09-2.76-3.42-1.89a40.29,40.29,0,0,0-4.59,2.11s2.77-3.06,4.66-3.2,3.57-2.55,1.31-3.79-5.53.65-6.48.9a6.81,6.81,0,0,1-2.4,0,32.8,32.8,0,0,1,5-2.65c1.39-.36,1.17-3.42-2.69-2.84a81.27,81.27,0,0,1-10.27.66,8.23,8.23,0,0,0-3.13.94s-1.67-3-6.12-.29-5,5.76-5.82,7.79-6.63,8.89-9.4,9.91S204,132.86,192,133.15c-8.14.19-11.24,1.85-11.24,1.85s-11.95-22.43-13.94-24.23S144.81,111.08,142.14,114.2Z"/><path class="cls-26" d="M253.2,93.08a.55.55,0,0,1-.63.46h0a.55.55,0,0,1-.47-.63l.5-3.41a.55.55,0,0,1,.63-.47h0a.55.55,0,0,1,.47.63Z"/></g></g></svg>