<svg xmlns="http://www.w3.org/2000/svg" height="350" xmlns:xlink="http://www.w3.org/1999/xlink" viewBox="0 0 156.85 417.65"><defs><style>.cls-1{fill:#2b73b5;}.cls-2{fill:url(#linear-gradient);}.cls-3{fill:url(#linear-gradient-2);}.cls-4{fill:#f2dad4;}.cls-5{fill:#192b59;}.cls-6{fill:url(#linear-gradient-3);}.cls-7{fill:url(#linear-gradient-4);}.cls-8{fill:#e64d4e;}.cls-9{fill:url(#linear-gradient-5);}</style><linearGradient id="linear-gradient" x1="220.66" y1="309.29" x2="239.92" y2="288.54" gradientTransform="translate(-182.07 91.18) rotate(-1.85)" gradientUnits="userSpaceOnUse"><stop offset="0" stop-color="#4e9cff"/><stop offset="0.98" stop-color="#176ad4"/></linearGradient><linearGradient id="linear-gradient-2" x1="229.22" y1="274.6" x2="253.93" y2="231.94" gradientTransform="translate(-182.07 91.18) rotate(-1.85)" gradientUnits="userSpaceOnUse"><stop offset="0" stop-color="#1d0633"/><stop offset="1" stop-color="#192b59"/></linearGradient><linearGradient id="linear-gradient-3" x1="251.52" y1="56.53" x2="262.85" y2="182.58" xlink:href="#linear-gradient"/><linearGradient id="linear-gradient-4" x1="252" y1="46.77" x2="255.16" y2="81.92" gradientTransform="translate(-182.07 91.18) rotate(-1.85)" gradientUnits="userSpaceOnUse"><stop offset="0" stop-color="#f2bfad"/><stop offset="1" stop-color="#f2dad4"/></linearGradient><linearGradient id="linear-gradient-5" x1="258.71" y1="272.22" x2="264.26" y2="333.98" xlink:href="#linear-gradient"/></defs><title>p-columpio</title><g id="Capa_2" data-name="Capa 2"><g id="Capa_1-2" data-name="Capa 1"><rect class="cls-1" x="5.96" y="279.2" width="133.18" height="13.97"/><path class="cls-2" d="M63.7,361.47c-2.64,2-7.06,5.57-9.38,7s-5.34,3.68-5.38,9,7.71,14.54,13,14.37,12.85-9.31,14.33-13.14,8.08-16.17,1.87-19.43S63.7,361.47,63.7,361.47Z"/><path class="cls-3" d="M117,258.41c.32,2.68,5.21,8.89,4,15.69s-10.7,44.46-17.42,57S92.42,354,85.36,355.89s-11-12.45-11.18-14S85.94,317.5,86.6,311.37s6-25.61,2.87-27.35-2.89-2.86-6-2.27-10-13.91-10-13.91,10.72-31,18.49-31.64C106.43,235.09,116.59,255.12,117,258.41Z"/><polygon class="cls-4" points="74.88 363.48 77.71 370.94 87.99 368.53 92.01 362.41 85.36 355.89 74.88 363.48"/><path class="cls-5" d="M22.81,266.35a18,18,0,0,0-3,17.46c1.78,4.71,31,62.69,36.94,69.25s10.4,19.22,12.37,19,2.14-6,8.45-8.65,10.55-5.12,10.5-6.86-19.59-36.75-23.51-42.68S49.27,291.12,51.21,290s11.22-6.07,15.75-6.45,15.33-1.19,16.47-1.81S107.84,244.4,107.15,241s-21.21-11.42-35.93-9.31S27.17,261,22.81,266.35Z"/><path class="cls-6" d="M62.57,144.85c-8.7,3.32-31.27,9.69-33.86,11.91S16.57,186,14.13,186.4-.19,194.42,0,200.48s6.79,22.34,12.94,21.61,12.67-8,13.26-4.9c3.48,18.24-5.67,42.24-4.07,50,.62,3,28.66-22.71,53.52-23.2,25.11-.5,42.44,19.46,43.17,16.36,3.28-13.88-6.27-31.87,6.68-57.7,0,0,10.06,10.4,17.29,11s14.21-11.35,14.06-16.21-3.9-16.8-9.93-16.61-8.09,3.66-9.64,2.43-11.21-25.22-17-28.22-24-6.55-26.24-7.92-12.6-4.56-17.41-3.74S62.57,144.85,62.57,144.85Z"/><path class="cls-7" d="M62.16,132.09c.26,3.63,1.74,12.08.41,12.76s-5.36,2.93-6.12,5.6S58.18,165,75.73,164.51C93.89,164,92.15,150.81,91,148.92s-3.62-1.8-3.86-4.86.44-12.72.42-13.29S62.16,132.09,62.16,132.09Z"/><path class="cls-8" d="M56.1,122.6c-1-5.41-2.94-16.8-2.55-19.3C54.2,99.15,60,90.17,71,89.82S88,95,90.6,101.38s2.23,20.44,2.23,20.44-12.23,7.9-18,7.83S56.1,122.6,56.1,122.6Z"/><path class="cls-4" d="M54.49,119.9c-1.72,1.65,3.22,10.58,4,10.62s1.56-.32,2.22.89,6.13,13.85,15,13.57c9.48-.29,13.75-14.16,14.32-15.68s1.58-.22,2.2-1a21.29,21.29,0,0,0,2.24-8.13c0-2.65-.54-3.35-1.75-3.1s-1,2.23-1.65,2.21,0-6.1-.7-9.78-4-7.77-16.41-6.77-16.11,1.6-16.2,8.13c0,0,.34,10.32-.5,10.1S55.85,118.6,54.49,119.9Z"/><path class="cls-9" d="M87.07,356.9c1.45-1.12,6.86,2.6,8.35,3.59a25.58,25.58,0,0,0,6.36,3.18,3.92,3.92,0,0,1,2.8,5c-.76,2.56-5.59,13.3-5.85,15.48s1.33,10.44-1.12,14.85-11.82,18.59-16.85,18.61-5.61-12-4.81-15a23.33,23.33,0,0,0,.35-9.42c-.47-3.09-1.25-9.55-3.35-13.43s-5-7.89-2.79-11.07,5.28-4.33,7.2-4.08,2.67,2.53,3.53,1.93a47.58,47.58,0,0,1,4.5-3C87.24,362.53,86.18,357.59,87.07,356.9Z"/><path class="cls-1" d="M15.78,288.81h0a1.5,1.5,0,0,1-1.46-1.52L21,3.69a1.49,1.49,0,0,1,3,.06l-6.72,283.6A1.49,1.49,0,0,1,15.78,288.81Z"/><path class="cls-1" d="M129.09,288.81h0a1.49,1.49,0,0,1-1.46-1.52L134.39,1.46A1.49,1.49,0,0,1,135.88,0h0a1.49,1.49,0,0,1,1.46,1.51l-6.78,285.84A1.49,1.49,0,0,1,129.09,288.81Z"/><path class="cls-4" d="M3.39,178.29c.38,3.16-1.61,10.15-1.9,12.92a31,31,0,0,0,1.26,12.28c1.56,4.92,4.19,7.59,7.61,4.78s4.85-5.51,4.78-7.83-3.41-18.32-3.25-20.11,7.62-8.24,8.38-8.21a14.11,14.11,0,0,1,3.23,1.3c1,.45,2-1.2,2-2a7.4,7.4,0,0,1,0-1.51c.1-.49.81-1.92.67-2.88a7.78,7.78,0,0,1,.17-3c.24-.76,1.73-1.51,1.72-2.05a5.84,5.84,0,0,0-1.89-4.86c-2.17-1.93-3.5-2.91-6.78-2.37s-7.72.3-8.87,3S2.5,170.8,3.39,178.29Z"/><path class="cls-4" d="M122,162.56c1.1.78,4,1.27,5,2.24s3.29,4.12,5.53,4.79,4.56,2.3,4.81,3.29.13,17.76.62,19.26,6.51,9.81,11.83,9.13,2-17.45.64-20.28a53.35,53.35,0,0,1-3.89-12.25c-.45-3.47-3-7.73-3.57-9.45s0-8.55-1.26-9.64-6.25-5.28-7.17-5.46-1.94-2.22-2.93-1.86c-1.59.58-.26,2.14-1.33,2s-5.08-.68-5.8,1.17a3.52,3.52,0,0,0-.08,2.92,2,2,0,0,0-2.47,1.84,4.67,4.67,0,0,0,.67,3.46s-2,.07-2.16,1.8,1.57,2.92,1.37,3.12A3,3,0,0,0,122,162.56Z"/></g></g></svg>