<svg xmlns="http://www.w3.org/2000/svg" xmlns:xlink="http://www.w3.org/1999/xlink" viewBox="0 0 180.5 194.95"><defs><style>.cls-1{fill:url(#Degradado_sin_nombre_12);}.cls-2{fill:#ededed;}.cls-3{fill:#59595b;}.cls-4{fill:#c22645;stroke:#fff;stroke-width:3px;}.cls-5{fill:#fff;}</style><linearGradient id="Degradado_sin_nombre_12" x1="92" y1="33.26" x2="-34.67" y2="242.59" gradientUnits="userSpaceOnUse"><stop offset="0" stop-color="#eab530"/><stop offset="1" stop-color="#c22645"/></linearGradient></defs><title>rechazada</title><g id="Capa_2" data-name="Capa 2"><g id="Capa_1-2" data-name="Capa 1"><path class="cls-1" d="M87.61,5.52h-5.5a3.25,3.25,0,0,0-3.25,3.25h0a4.78,4.78,0,0,1-4.78,4.78H31.59a4.78,4.78,0,0,1-4.78-4.78h0a3.25,3.25,0,0,0-3.25-3.25h-5.5a12,12,0,0,0-11.95,12V179.24a9.31,9.31,0,0,0,9.31,9.31H90.25a9.31,9.31,0,0,0,9.31-9.31V17.47A12,12,0,0,0,87.61,5.52Z"/><path class="cls-2" d="M89.87,0H15.8A15.8,15.8,0,0,0,0,15.8V177.21A17.74,17.74,0,0,0,17.74,195H87.93a17.74,17.74,0,0,0,17.74-17.74V15.8A15.8,15.8,0,0,0,89.87,0Zm9.69,179.24a9.31,9.31,0,0,1-9.31,9.31H15.42a9.31,9.31,0,0,1-9.31-9.31V17.47a12,12,0,0,1,12-11.95h5.5a3.25,3.25,0,0,1,3.25,3.25,4.78,4.78,0,0,0,4.78,4.78H74.08a4.78,4.78,0,0,0,4.78-4.78,3.25,3.25,0,0,1,3.25-3.25h5.5a12,12,0,0,1,12,12Z"/><path class="cls-3" d="M58.37,9.38H47.31a1,1,0,0,1-1-1h0a1,1,0,0,1,1-1H58.37a1,1,0,0,1,1,1h0A1,1,0,0,1,58.37,9.38Z"/><circle class="cls-4" cx="121.86" cy="98.37" r="57.13"/><path class="cls-5" d="M104,120.86a4.6,4.6,0,0,1-3.25-7.85L136.5,77.22A4.6,4.6,0,1,1,143,83.73l-35.78,35.78A4.6,4.6,0,0,1,104,120.86Z"/><path class="cls-5" d="M139.75,120.86a4.59,4.59,0,0,1-3.25-1.35L100.72,83.73a4.6,4.6,0,1,1,6.51-6.51L143,113a4.6,4.6,0,0,1-3.26,7.85Z"/></g></g></svg>