<svg id="Grupo_29" data-name="Grupo 29" xmlns="http://www.w3.org/2000/svg" xmlns:xlink="http://www.w3.org/1999/xlink" width="139.328" height="139.328" viewBox="0 0 139.328 139.328">
  <defs>
    <clipPath id="clip-path">
      <rect id="Rectángulo_9" data-name="Rectángulo 9" width="139.328" height="139.328" fill="none"/>
    </clipPath>
  </defs>
  <g id="Grupo_28" data-name="Grupo 28" clip-path="url(#clip-path)">
    <path id="Trazado_68" data-name="Trazado 68" d="M185.959,72.949a1.1,1.1,0,0,1-1.1-1.1V57.641H170.652a1.1,1.1,0,0,1,0-2.193h15.307a1.1,1.1,0,0,1,1.1,1.1V71.852a1.1,1.1,0,0,1-1.1,1.1" transform="translate(-77.236 -25.258)" fill="#de0209"/>
    <path id="Trazado_69" data-name="Trazado 69" d="M55.293,72.949a1.1,1.1,0,0,1-1.1-1.1V56.545a1.1,1.1,0,0,1,1.1-1.1H70.6a1.1,1.1,0,1,1,0,2.193H56.389V71.852a1.1,1.1,0,0,1-1.1,1.1" transform="translate(-24.688 -25.258)" fill="#de0209"/>
    <path id="Trazado_70" data-name="Trazado 70" d="M70.6,188.308H55.293a1.1,1.1,0,0,1-1.1-1.1V171.9a1.1,1.1,0,0,1,2.193,0v14.211H70.6a1.1,1.1,0,1,1,0,2.193" transform="translate(-24.688 -77.807)" fill="#de0209"/>
    <path id="Trazado_71" data-name="Trazado 71" d="M185.959,188.308H170.652a1.1,1.1,0,1,1,0-2.193h14.211V171.9a1.1,1.1,0,0,1,2.193,0v15.307a1.1,1.1,0,0,1-1.1,1.1" transform="translate(-77.236 -77.807)" fill="#de0209"/>
    <path id="Trazado_72" data-name="Trazado 72" d="M131.321,129.419H54.726a1.113,1.113,0,1,1,0-2.226h76.594a1.113,1.113,0,0,1,0,2.226" transform="translate(-24.422 -57.939)" fill="#de0209"/>
    <path id="Trazado_73" data-name="Trazado 73" d="M53.109,129.742a2.934,2.934,0,1,1,2.934-2.934,2.938,2.938,0,0,1-2.934,2.934" transform="translate(-22.856 -56.427)" fill="#de0209"/>
    <path id="Trazado_74" data-name="Trazado 74" d="M193.786,129.742a2.934,2.934,0,1,1,2.934-2.934,2.938,2.938,0,0,1-2.934,2.934" transform="translate(-86.938 -56.427)" fill="#de0209"/>
    <path id="Trazado_75" data-name="Trazado 75" d="M69.664,139.328A69.682,69.682,0,0,1,42.548,5.475,69.682,69.682,0,0,1,96.781,133.853a69.221,69.221,0,0,1-27.117,5.475m0-137.1A67.456,67.456,0,0,0,43.414,131.8,67.456,67.456,0,0,0,95.914,7.525a67.017,67.017,0,0,0-26.25-5.3" fill="#de0209"/>
    <path id="Trazado_76" data-name="Trazado 76" d="M85.143,97.837c-.038.093-.07.188-.1.285h2.887a1.086,1.086,0,0,0,.488-1.113c-1.808-9.876-.3-14.164,1.29-16.022a3.909,3.909,0,0,1,2.838-1.52,1.064,1.064,0,0,0,.971-.476,1.087,1.087,0,0,0,.057-1.093c-.213-.427.137-.947.469-1.307a10.055,10.055,0,0,1,5.681-2.479,18,18,0,0,1,9.435,1.154q.234.094.468.183a1.088,1.088,0,0,0,.246.063,18.875,18.875,0,0,1,5.536,1.624,1.1,1.1,0,0,0,.24.08,38.14,38.14,0,0,0,10.267.754,19.638,19.638,0,0,1-2.006,4.162,1.085,1.085,0,0,0,.8,1.674,2.084,2.084,0,0,1,1.572.889c1.315,1.784,1.369,6.23.146,12.2a1.081,1.081,0,0,0,.677,1.232h3.164c-.029-.1-.061-.192-.1-.285a2.741,2.741,0,0,0-1.421-1.5c1.19-6.321.948-10.669-.721-12.932a4.326,4.326,0,0,0-1.563-1.327,24.646,24.646,0,0,0,2.029-5.065,1.087,1.087,0,0,0-1.223-1.369,33.711,33.711,0,0,1-11.06-.528,21.066,21.066,0,0,0-5.926-1.739q-.162-.062-.324-.127a20.177,20.177,0,0,0-10.573-1.283,12.251,12.251,0,0,0-6.948,3.155,3.843,3.843,0,0,0-1.107,2.342A6.531,6.531,0,0,0,88.125,79.5c-2.722,3.1-3.389,8.844-1.988,17.08a2.768,2.768,0,0,0-.994,1.26" transform="translate(-38.74 -32.681)" fill="#de0209"/>
    <path id="Trazado_77" data-name="Trazado 77" d="M130.8,163.088a15.493,15.493,0,0,0-13.924-8.6H111.1a23.2,23.2,0,0,1-.2-3.083,23.972,23.972,0,0,1,.127-2.477,30.368,30.368,0,0,0,5.809-7.16c1.865-.253,3.253-1.983,4.124-3.485h-2.621a2.888,2.888,0,0,1-1.98,1.344q-.042,0-.085,0a1.085,1.085,0,0,0-1.017.542,28.193,28.193,0,0,1-5.965,7.391,1.089,1.089,0,0,0-.375.695,25.763,25.763,0,0,0-.19,3.155,24.645,24.645,0,0,0,.374,4.362,1.086,1.086,0,0,0,1.069.893h6.7a13.319,13.319,0,0,1,11.058,5.828H73.7a13.319,13.319,0,0,1,11.058-5.828h6.763a1.086,1.086,0,0,0,1.069-.893,24.592,24.592,0,0,0,.374-4.362,25.721,25.721,0,0,0-.183-3.093,1.083,1.083,0,0,0-.379-.7,28.126,28.126,0,0,1-6.058-7.494,1.085,1.085,0,0,0-.715-.521,3.347,3.347,0,0,1-1.707-1.314H81.306a7.26,7.26,0,0,0,3.37,3.295,30.413,30.413,0,0,0,5.991,7.411,23.974,23.974,0,0,1,.121,2.416,23.288,23.288,0,0,1-.2,3.083H84.756a15.493,15.493,0,0,0-13.924,8.6,1.086,1.086,0,0,0,.971,1.573h58.023a1.086,1.086,0,0,0,.971-1.573" transform="translate(-32.213 -62.991)" fill="#de0209"/>
  </g>
</svg>
