<svg xmlns="http://www.w3.org/2000/svg" viewBox="0 0 36 36"><defs><style>.cls-1{fill:#ffd05d;}.cls-2{fill:#303030;}.cls-3{fill:#414042;}.cls-4{fill:#5e4939;}</style></defs><title>triste</title><g id="Capa_2" data-name="Capa 2"><g id="Capa_1-2" data-name="Capa 1"><circle class="cls-1" cx="18" cy="18" r="18"/><path class="cls-2" d="M12.69,13.63c0,1.24-.59,2.24-1.32,2.24S10,14.87,10,13.63s.6-2.23,1.33-2.23S12.69,12.4,12.69,13.63Z"/><path class="cls-2" d="M26,13.63c0,1.24-.6,2.24-1.33,2.24s-1.32-1-1.32-2.24.59-2.23,1.32-2.23S26,12.4,26,13.63Z"/><path class="cls-3" d="M28.63,9.86l-.56-.16c-.41-.11-.79-.22-1.16-.35a11.76,11.76,0,0,1-1.52-.64A10.73,10.73,0,0,1,24,7.82a13.59,13.59,0,0,1-1.3-1.2.1.1,0,0,0-.09,0,.1.1,0,0,0-.05.08,3.47,3.47,0,0,0,.71,1.84,4.42,4.42,0,0,0,1.52,1.29,4.76,4.76,0,0,0,1.84.53h.07A4.07,4.07,0,0,0,28.64,10a.1.1,0,0,0,.05-.08A.09.09,0,0,0,28.63,9.86Z"/><path class="cls-3" d="M7.37,9.86l.56-.16c.41-.11.79-.22,1.16-.35a11.76,11.76,0,0,0,1.52-.64A10.73,10.73,0,0,0,12,7.82a13.59,13.59,0,0,0,1.3-1.2.1.1,0,0,1,.09,0,.1.1,0,0,1,.05.08,3.47,3.47,0,0,1-.71,1.84,4.42,4.42,0,0,1-1.52,1.29,4.76,4.76,0,0,1-1.84.53H9.28A4.07,4.07,0,0,1,7.36,10a.1.1,0,0,1-.05-.08A.09.09,0,0,1,7.37,9.86Z"/><path class="cls-4" d="M11.19,25.75c-.18,0-.29-.22-.29-.39a5.53,5.53,0,0,1,.63-2.43,6.73,6.73,0,0,1,1.62-2A7.76,7.76,0,0,1,18,19.17a7.36,7.36,0,0,1,4.88,1.75,6.18,6.18,0,0,1,2.22,4.44c0,.18-.12.42-.33.38s-.3-.26-.43-.36-.39-.31-.59-.46a12.86,12.86,0,0,0-1.28-.78A9.61,9.61,0,0,0,17.17,23a9.14,9.14,0,0,0-3.35,1A12.27,12.27,0,0,0,12,25.09c-.21.17-.56.6-.82.65Z"/></g></g></svg>